<?xml version="1.0" encoding="utf-8"?><!DOCTYPE svg PUBLIC "-//W3C//DTD SVG 1.1//EN" "http://www.w3.org/Graphics/SVG/1.1/DTD/svg11.dtd"><svg version="1.1" id="Contours" xmlns="http://www.w3.org/2000/svg" xmlns:xlink="http://www.w3.org/1999/xlink" x="0px" y="0px" width="1054.231323px" height="1054.231323px" viewBox="0.000003 0.000000 1054.231323 1623.215454" enable-background="new 0 0 1054.231323 1054.231323" xml:space="preserve" stroke="black" fill="none" stroke-linecap='round' stroke-linejoin='round'><path class="selected"  fill="#000000" opacity="1.000000" stroke="none" 
 	d="
M1054.228406 31.499990 C1053.895032 30.499218 1053.283826 29.250900 1053.272839 27.997267 C1053.190808 18.748758 1053.228406 9.499204 1053.228406 0.000000 C1053.561658 0.416684 1054.181165 1.081531 1054.185315 1.750290 C1054.247937 11.583192 1054.228406 21.416649 1054.228406 31.499990 z"/><path class="selected"  fill="#000000" opacity="1.000000" stroke="none" 
 	d="
M383.228406 1165.749983 C384.895154 1163.635847 386.561810 1162.021589 388.228436 1160.407209 C386.204907 1159.331282 384.181683 1158.254866 382.157788 1157.179548 C373.895276 1152.789900 369.111646 1140.841413 371.597546 1130.863508 C371.762036 1130.203108 371.727002 1129.493269 371.784833 1128.806379 C371.215833 1129.004499 370.659589 1129.258406 370.075849 1129.392073 C363.679883 1130.855696 357.302930 1133.317610 350.873944 1133.465437 C344.377179 1133.614485 337.569562 1132.240828 331.351209 1130.172224 C314.977979 1124.725447 298.791303 1118.696516 282.644757 1112.596418 C270.151013 1107.876326 257.115857 1106.377546 244.193067 1108.037214 C232.696393 1109.513777 221.537610 1113.536848 210.187695 1116.261091 C195.161450 1119.867537 181.033429 1117.813704 168.997022 1107.764631 C164.299909 1103.843000 160.926343 1098.382063 161.216687 1091.573469 C161.769879 1078.602278 161.284497 1065.658674 157.145825 1053.260603 C152.598798 1039.639265 146.320401 1026.879988 135.720410 1016.724775 C132.973920 1014.093306 130.293881 1011.389509 127.651303 1008.653303 C124.646787 1005.542463 121.118192 1004.470686 116.759213 1004.673079 C105.657086 1005.188765 93.392926 993.745771 95.270352 982.056501 C96.980679 971.407515 103.849454 965.094831 113.693540 961.829206 C128.095563 957.051497 136.151334 946.156965 138.973569 932.342268 C143.852979 908.457930 133.665326 889.765181 115.649259 874.661421 C109.104321 869.174604 102.351010 863.900373 96.167188 858.029463 C90.768170 852.903669 88.418927 844.490400 93.298963 837.337324 C94.773328 835.176191 97.096265 833.016096 99.495053 832.165327 C108.963086 828.807051 111.926968 820.661909 114.091489 812.376509 C116.840405 801.854292 114.341931 791.928205 109.417050 782.221968 C105.452573 774.408491 99.434522 768.983076 92.245557 764.843367 C79.865521 757.714582 66.383618 753.545149 52.187802 751.739729 C47.455960 751.137922 42.653333 750.777266 38.033444 749.675642 C28.110989 747.309736 25.662351 734.477766 31.498868 727.005415 C36.902280 720.087507 44.745007 717.491255 52.851468 715.880720 C56.272504 715.201033 55.393430 714.480696 54.318463 712.232527 C48.019010 699.057722 37.142697 692.023115 23.405957 688.802107 C20.461270 688.111677 17.364896 687.840620 14.332204 687.795881 C5.550252 687.666121 -2.033603 677.470076 0.492314 668.986067 C3.055417 660.377241 11.363774 654.830305 20.223348 653.558088 C31.837460 651.890486 42.300717 655.840681 52.745694 659.057539 C66.953900 663.433516 80.191281 662.739607 93.774243 656.911848 C102.723676 653.072248 111.790784 648.787336 121.889661 648.793196 C131.755429 648.798994 147.121793 655.130049 148.343640 668.306746 C148.395673 668.867842 150.312177 669.878706 151.062177 669.659773 C163.834485 665.930037 177.012677 663.100752 189.178723 657.910322 C203.878980 651.638594 214.661084 640.878401 219.411054 624.652754 C221.828259 616.395613 220.881360 608.817305 218.974469 600.879072 C218.188214 597.605879 217.892407 594.000349 218.380597 590.694685 C218.890973 587.238752 221.640210 585.382612 225.354840 585.760054 C242.613629 587.513533 258.031201 582.290632 271.087537 571.581526 C283.659772 561.269453 288.423840 548.408857 281.737286 532.049360 C277.315534 521.230940 267.736066 514.443708 256.922803 510.959272 C242.885205 506.435743 228.354230 503.449690 214.051801 499.739546 C202.540784 496.753492 191.890241 492.256971 183.333173 483.487196 C178.637280 478.674543 176.651959 473.275679 178.583112 467.029585 C180.771466 459.951765 187.256238 458.228376 193.566907 456.766676 C208.146893 453.389540 220.938367 459.930647 234.161847 464.158339 C251.681348 469.759474 269.085797 475.822645 286.846784 480.528273 C297.670911 483.396040 309.042157 484.344343 320.226178 485.655775 C327.362042 486.492476 334.601697 486.556257 341.800427 486.719893 C355.293317 487.026625 368.228375 484.023451 381.186047 480.501814 C389.984540 478.110609 399.198499 476.103346 408.241773 476.038862 C420.336438 475.952620 427.965222 485.093214 425.969434 494.857466 C424.737012 500.886702 421.053540 506.438612 418.314588 512.129805 C415.287183 518.420576 410.183240 523.966841 411.264661 531.689924 C411.609082 534.150190 412.011487 536.717756 413.021130 538.949568 C417.321851 548.456465 414.243237 556.913313 407.482312 562.567915 C400.382398 568.505964 393.313703 568.438643 384.232251 563.270796 C383.355908 562.772139 382.393323 562.425032 381.470776 562.007612 C381.662702 563.027815 381.738934 564.086409 382.063489 565.062544 C389.561871 587.616621 398.064130 609.800764 406.875073 631.865828 C413.555676 648.595930 420.564649 665.196211 427.097974 681.982588 C428.144299 684.670881 428.885999 683.989363 430.418164 683.062056 C436.734387 679.239546 437.746472 672.749372 438.114453 666.376570 C438.584424 658.237471 437.794873 650.022566 438.322766 641.890547 C439.285291 627.063581 445.263013 614.465376 455.637402 603.623335 C462.062817 596.908247 468.851880 591.169294 477.479871 587.599104 C478.231275 587.288252 478.844861 584.386641 478.271314 583.478926 C472.186780 573.849470 467.278516 563.705854 464.636609 552.610518 C460.844434 536.684614 466.563855 520.591658 482.273755 512.297590 C493.053418 506.606459 503.747449 510.339247 510.013867 521.008162 C513.538037 527.008467 515.415112 534.153486 517.105481 541.011702 C519.583203 551.064985 521.235547 561.322004 523.218091 571.496443 C523.432263 572.595686 523.256970 573.837324 523.706677 574.806623 C524.218030 575.908674 525.228955 576.778975 526.022656 577.749983 C526.424573 576.887678 527.126721 576.043745 527.180798 575.160139 C527.600415 568.303877 528.610730 561.382856 528.069348 554.591047 C527.135693 542.879316 525.829480 531.190901 518.320325 521.153669 C512.391248 513.228498 504.824231 508.838331 495.319714 506.640211 C485.479566 504.364454 477.781262 507.366102 470.497205 513.796736 C465.910901 517.845564 459.181104 517.370405 452.204724 512.121809 C436.858228 500.576124 440.917676 483.610731 451.646924 472.737135 C475.499707 448.563307 504.509839 430.974226 531.180921 410.405958 C552.127088 394.252577 573.418897 378.542402 594.737256 362.880384 C599.586316 359.317915 605.021314 356.441511 610.459485 353.813978 C624.025098 347.259474 638.251294 346.815474 652.318067 351.481855 C673.094434 358.374189 693.684583 365.842756 714.250501 373.349440 C725.673840 377.519056 737.240186 381.554365 748.093762 386.953444 C758.546277 392.152967 769.186170 397.852705 777.920117 405.433668 C792.718701 418.278669 801.299085 436.240828 791.662061 457.521620 C786.688184 468.505293 780.038892 478.818800 773.375379 488.926802 C764.599011 502.239790 759.203748 516.501509 761.453565 532.387007 C763.038648 543.578901 766.464734 554.546736 769.532971 565.484358 C775.935315 588.306868 782.618054 611.051069 789.237988 633.812178 C793.562329 648.680464 797.989880 663.518782 802.351453 678.376265 C809.985120 704.380476 818.320630 730.208418 824.942822 756.468122 C828.558362 770.805098 829.755200 786.086897 822.120679 799.934797 C815.147717 812.582869 804.559338 820.212324 789.577771 821.876692 C766.753552 824.412458 751.245130 807.545942 746.300061 788.718000 C745.767774 786.691206 745.941113 784.355757 746.293286 782.248030 C746.874951 778.766279 745.079785 778.240522 742.427503 778.772261 C731.050794 781.053205 719.619458 783.119673 708.342236 785.824080 C693.750012 789.323408 679.339795 793.724897 666.119214 800.895613 C657.465161 805.589460 648.799573 810.818525 641.500806 817.333418 C628.262586 829.150007 618.217420 843.802351 614.482373 861.298811 C610.669385 879.160627 614.148694 896.146772 625.212354 911.391096 C633.022351 922.152449 643.424573 927.772200 656.051709 930.879683 C670.907361 934.535505 684.222608 942.012922 695.644605 951.950178 C710.676099 965.027754 722.453320 980.809492 726.667249 1000.808149 C731.512525 1023.802595 726.745435 1044.624372 711.203931 1062.808821 C703.841687 1071.423201 695.462964 1078.515486 685.199475 1083.219343 C674.444959 1088.148176 663.359021 1090.003035 651.384473 1087.884626 C632.078198 1084.468977 613.898511 1087.339338 597.356519 1098.961409 C584.434583 1108.039900 575.181104 1119.580671 570.047681 1134.455305 C568.988233 1137.525007 567.942944 1140.628889 567.273877 1143.797956 C565.863233 1150.479353 567.497571 1152.763899 574.649671 1153.710798 C586.850659 1155.325666 595.160352 1162.914412 598.841687 1173.464582 C602.806531 1184.827253 601.332532 1197.087019 591.492261 1205.696394 C583.171521 1212.976545 584.195569 1221.255110 587.978223 1231.058699 C591.362134 1239.828962 594.702466 1248.644148 597.376416 1257.643293 C598.207654 1260.440779 596.939099 1263.929426 596.357495 1267.050520 C596.069776 1268.594587 594.526746 1270.018538 597.844373 1269.813948 C606.360669 1269.288923 614.898938 1269.128401 623.422620 1268.705915 C624.851026 1268.635237 625.872449 1268.869123 626.517896 1266.158430 C628.609204 1257.375227 625.031873 1249.677351 623.671033 1241.515974 C622.969006 1237.306257 623.034741 1232.612898 624.161817 1228.526472 C626.623120 1219.602522 635.273877 1217.342634 642.247937 1218.948835 C664.522901 1224.079451 686.701123 1229.711164 708.711987 1235.879622 C723.611585 1240.055159 738.124280 1245.349714 750.948010 1254.650129 C762.474500 1263.009871 770.812879 1273.398176 774.960584 1287.011946 C778.682202 1299.227156 770.540784 1314.905378 758.134534 1318.635481 C751.548291 1320.615583 744.575940 1322.619734 737.835034 1322.442366 C729.593030 1322.225447 721.357678 1319.973005 713.215772 1318.166487 C701.900952 1315.656111 690.783582 1312.395857 678.970593 1312.674543 C665.418469 1312.994123 655.221387 1319.268538 647.275586 1329.619856 C640.138501 1338.917341 634.056348 1349.105940 626.289197 1357.813581 C619.572583 1365.343245 610.503247 1370.432356 600.166882 1371.547712 C596.314160 1371.963362 592.214124 1370.078962 588.225354 1369.250349 C587.660779 1369.133039 587.087964 1369.055403 586.518933 1368.959455 C586.560925 1369.528425 586.452649 1370.162580 586.666760 1370.657087 C593.049024 1385.395247 588.029187 1398.899641 580.241345 1410.809431 C570.022168 1426.437483 557.953198 1440.855696 546.682630 1455.796370 C528.449719 1479.966536 514.177869 1506.219954 506.367871 1535.571638 C502.932752 1548.481794 502.004712 1561.986433 503.449292 1575.265730 C504.418591 1584.175764 506.914868 1593.049665 509.775342 1601.588728 C512.846387 1610.756086 508.051892 1620.795637 498.523084 1622.734724 C488.261548 1624.822859 480.988416 1619.830183 473.860303 1613.128767 C466.608289 1606.310652 460.902417 1598.517805 456.300549 1589.903303 C450.476392 1579.000837 447.354382 1567.132795 445.222485 1555.001204 C445.091077 1554.253157 444.875073 1553.520124 444.698377 1552.780012 C444.109143 1553.369246 443.460645 1553.910505 442.939588 1554.554914 C436.262463 1562.813337 427.322522 1566.259260 417.195325 1564.531965 C409.821851 1563.274397 402.487805 1560.655378 395.678082 1557.480940 C384.840405 1552.428694 373.799359 1549.359846 361.798291 1548.600569 C346.029859 1547.603010 331.108411 1550.475080 317.258923 1557.494734 C307.625745 1562.377302 298.308026 1568.148176 291.366986 1577.000227 C285.587384 1584.371077 278.104718 1588.447126 268.285016 1588.910749 C255.942975 1589.493513 245.469647 1585.892683 236.070508 1578.151228 C230.326459 1573.420027 224.180615 1569.174665 218.464826 1564.411604 C210.672376 1557.918318 203.372449 1550.814558 195.396222 1544.566389 C185.700879 1536.971418 175.884686 1529.411848 165.453107 1522.907698 C154.178265 1515.877790 142.437894 1509.411238 130.344251 1503.925276 C116.199216 1497.508772 101.504727 1492.280378 86.953748 1486.787947 C72.082593 1481.174665 57.507794 1474.994490 48.302503 1461.172712 C40.843152 1449.972761 38.003598 1437.730696 44.277814 1424.894758 C48.818204 1415.605940 56.954694 1411.320417 66.933682 1410.859846 C72.767484 1410.590559 78.650494 1411.445784 84.514935 1411.718489 C85.391065 1411.759382 86.286755 1411.379988 87.173383 1411.194929 C86.702023 1410.390242 86.368771 1409.451765 85.738538 1408.801008 C76.359067 1399.115095 71.833371 1387.239241 69.127484 1374.237165 C65.424863 1356.445784 67.843564 1339.622053 76.390332 1323.863142 C79.607999 1317.930403 84.522000 1312.877058 88.906766 1307.626448 C97.168042 1297.733870 108.271741 1292.139509 120.222409 1288.351179 C145.743985 1280.261457 169.444470 1284.877302 190.461286 1300.939680 C199.181073 1307.603743 206.690534 1316.013044 214.056592 1324.249128 C225.512280 1337.058088 236.145245 1350.601912 247.571088 1363.438948 C255.130109 1371.931257 264.487195 1378.419905 274.538342 1383.713118 C294.072797 1394.000349 313.417035 1393.109236 331.437299 1380.574080 C340.719220 1374.117414 346.039502 1364.407698 346.210523 1352.598005 C346.310834 1345.669538 352.216474 1341.403059 359.009686 1342.934187 C365.569379 1344.412703 370.138287 1348.811384 375.279553 1352.529890 C379.071851 1355.272810 383.238477 1357.561628 387.452039 1359.613997 C388.514386 1360.131575 390.395368 1358.968733 391.900159 1358.578108 C391.294110 1357.420027 390.922864 1356.030134 390.044995 1355.139875 C382.640637 1347.632307 375.851788 1339.783186 372.180341 1329.603498 C367.876569 1317.670637 370.361798 1307.482405 379.624402 1298.913191 C386.279462 1292.756330 393.567395 1293.135481 402.064954 1295.617659 C407.885144 1297.317976 415.044019 1296.806501 421.008801 1295.145002 C433.229993 1291.740705 444.372205 1292.457014 455.609082 1298.499983 C473.295422 1308.011213 491.324048 1316.884382 509.090711 1326.249739 C511.760999 1327.657331 512.538953 1327.100080 513.245252 1324.625349 C514.391736 1320.608625 515.429578 1316.539289 516.925733 1312.650740 C518.055982 1309.713240 516.736035 1308.509871 514.373303 1307.765974 C491.216443 1300.474836 469.008130 1290.913557 447.488171 1279.734968 C424.663281 1267.878401 402.815411 1254.446516 382.562085 1238.542219 C372.152326 1230.367781 361.974469 1221.898542 351.597699 1213.681379 C348.666425 1211.360090 349.712964 1210.345564 352.267896 1208.695662 C364.453900 1200.826155 377.445661 1199.952131 391.071240 1203.755720 C391.737317 1203.941755 392.379315 1204.213972 393.032544 1204.445906 C392.809583 1203.759016 392.774030 1202.903059 392.332318 1202.413557 C389.981915 1199.808455 387.454328 1197.361799 385.127789 1194.736555 C379.698071 1188.609846 378.455548 1181.168074 379.390119 1173.433210 C379.693646 1170.920881 381.895062 1168.637922 383.228406 1165.749983 M516.228406 707.249983 C513.073193 705.094770 509.890820 702.978071 506.770825 700.773115 C503.880444 698.730391 505.145154 696.001448 507.023389 694.896894 C511.223279 692.426924 515.749463 690.293989 520.401196 688.865156 C526.233411 687.073774 531.261182 684.361311 534.936170 679.505354 C542.468762 669.552351 542.918347 657.744307 540.899609 646.506697 C538.755567 634.571333 534.093335 623.077559 530.390393 611.435530 C524.396680 592.591475 518.362744 573.759382 512.198865 554.970503 C508.828504 544.697126 506.420178 534.067732 499.380444 525.250532 C493.770093 518.223616 481.719922 518.013655 477.146558 526.969831 C471.219983 538.576338 474.728406 548.933943 480.245923 559.276838 C485.140027 568.451216 490.555249 577.508467 488.219983 588.639143 C486.799512 595.409163 483.296277 600.136518 476.613782 603.142805 C471.106580 605.620283 465.111279 608.808638 461.517957 613.394575 C452.241651 625.233198 449.443067 639.818830 447.232800 654.385969 C445.875745 663.330000 444.676953 672.299543 443.199353 681.223310 C441.318799 692.581221 439.235486 703.905684 437.214002 715.239973 C437.061475 716.095259 436.704846 716.914167 436.443005 717.749983 C435.901868 717.113691 435.220471 716.551313 434.840344 715.830122 C428.281018 703.383833 421.782788 690.905317 415.221692 678.459944 C408.585462 665.872114 402.215772 653.128645 395.130109 640.797590 C389.120526 630.339277 381.759381 627.870832 370.259503 633.210371 C366.626721 634.897139 363.076154 636.866621 359.289441 638.094648 C350.767621 640.858015 343.150678 636.499495 344.236005 627.355391 C345.160565 619.565840 350.138867 614.199446 355.495404 609.164534 C355.971173 608.717390 357.878552 609.289045 358.791455 609.889082 C367.979199 615.927595 377.988019 616.950788 388.444165 614.675459 C391.197247 614.076338 393.076795 612.691694 391.118421 609.002913 C386.708417 600.696333 382.799573 592.124495 378.650037 583.678572 C372.185925 570.521589 365.682324 557.383955 359.245770 544.213484 C359.013898 543.738997 359.315534 543.003767 359.368512 542.390059 C365.095807 543.450727 370.942304 544.091047 376.521497 545.673750 C384.229291 547.860456 391.719067 550.809004 399.356061 553.263716 C400.061292 553.490461 401.992108 552.292219 401.947553 552.120649 C399.851270 544.044294 399.828442 536.016951 401.123456 527.749311 C403.050794 515.444685 407.151685 504.215925 415.012402 494.478376 C417.679761 491.174177 417.153577 488.227766 413.298718 486.812819 C411.403211 486.117048 409.086926 485.396070 407.266309 485.866804 C398.529859 488.125776 389.281537 489.598280 381.416852 493.670881 C374.723615 497.136915 367.827985 499.257612 360.941449 499.449293 C347.746503 499.816572 334.325116 499.537916 321.320874 497.482527 C302.645581 494.530775 284.225415 489.899305 265.760388 485.703169 C250.719373 482.285109 235.772962 478.450972 220.783460 474.806105 C211.092175 472.449598 201.398908 470.101393 191.706250 467.750532 C190.904706 467.556135 190.101209 467.369856 189.298627 467.179762 C189.487500 468.082136 189.453717 469.117353 189.900433 469.865889 C193.526959 475.942701 198.427960 481.154432 204.928693 483.580397 C217.219403 488.167128 229.831891 491.926130 242.408978 495.701612 C255.611218 499.664808 268.996045 502.687086 280.263226 511.646345 C298.256177 525.953657 298.633038 546.831953 290.058423 565.044600 C284.256116 577.368696 273.524518 585.641401 261.586011 591.572859 C251.791699 596.439131 241.090680 599.217024 229.988873 599.767439 C229.062482 599.813337 228.148267 600.105452 227.228406 600.283247 C227.589795 601.300215 227.773908 602.430830 228.341260 603.315718 C232.061719 609.118574 233.824078 615.590803 233.118573 622.286116 C231.621838 636.490767 223.070813 646.744673 212.045484 654.571150 C203.729382 660.474531 194.429364 665.098127 185.241651 669.631392 C178.777997 672.820601 171.855725 675.171431 164.981976 677.418562 C152.334180 681.553450 139.351453 684.141584 126.015149 684.774031 C124.088162 684.865400 123.392743 684.586775 123.103238 682.258284 C122.232007 675.250837 127.419064 672.116743 131.717755 669.049788 C136.468854 665.659956 137.022641 665.677534 132.505826 661.634077 C131.051358 660.332075 129.086194 659.463606 127.213300 658.789778 C119.294125 655.940596 113.085736 660.169416 106.627347 663.768354 C100.834042 666.996748 95.065091 670.983076 88.779447 672.416731 C82.229688 673.910566 74.957974 673.552168 68.209989 672.571699 C56.583051 670.882246 45.175260 667.715010 33.562253 665.887800 C26.565717 664.786970 19.418836 665.738508 12.861585 668.823957 C11.099149 669.653242 9.761205 671.384565 8.228406 672.701826 C10.171880 673.384565 12.118115 674.059553 14.056722 674.755842 C14.490048 674.911482 14.878247 675.211836 15.318265 675.327009 C29.376843 679.005781 42.008740 685.260176 53.271924 694.649702 C62.450787 702.301741 69.819089 711.291365 76.135053 721.272322 C76.555524 721.936750 78.037534 723.664228 74.889813 723.873640 C63.078870 724.659285 51.786328 727.561506 41.528104 733.756697 C40.751798 734.225447 40.032727 734.789045 39.287061 735.308638 C40.254712 735.789106 41.192426 736.609663 42.194608 736.697920 C53.571332 737.699568 63.954785 742.025496 74.288083 746.375593 C86.326886 751.443830 97.167890 758.582075 107.005444 767.113630 C116.944577 775.733381 125.073209 785.678205 129.525403 798.432539 C133.936444 811.068953 129.862454 824.849287 116.641782 830.050154 C112.216458 831.791059 108.037305 834.837568 104.558637 838.142988 C99.550015 842.902205 100.265241 850.725447 105.381680 853.371260 C112.643704 857.126692 119.653409 860.888716 125.973340 866.500532 C133.779828 873.432356 140.018826 881.330244 144.000592 890.537092 C148.819898 901.680464 151.256726 913.394880 149.441663 926.069197 C146.718686 945.083357 137.052411 959.658064 122.964810 971.604170 C117.828351 975.959883 111.293836 978.674482 105.362531 982.077436 C104.442380 982.605391 103.336133 982.808943 102.315885 983.162519 C103.400266 984.025007 104.378720 985.091536 105.585584 985.718184 C117.004224 991.646772 128.864148 992.199751 141.038388 988.432661 C141.620709 988.252485 142.178159 987.991926 142.747220 987.768782 C142.574292 988.397566 142.515714 989.089338 142.209851 989.644941 C140.265363 993.177839 138.449902 996.802717 136.222577 1000.151716 C134.652493 1002.512373 134.805936 1003.601728 137.208768 1005.425520 C141.475095 1008.663618 145.547269 1012.291731 149.128064 1016.271833 C157.598859 1025.687117 163.745374 1036.734236 168.035169 1048.484968 C172.266065 1060.074202 174.038495 1072.360212 173.228009 1084.842878 C173.057294 1087.472029 172.201825 1090.275984 172.826367 1092.699446 C175.489301 1103.033186 183.503430 1106.761457 193.147199 1107.710554 C200.928815 1108.476423 208.159131 1105.907820 215.251141 1103.179914 C225.878369 1099.092268 236.647778 1094.743147 248.150189 1095.958235 C258.879895 1097.091658 269.622327 1099.273298 280.010053 1102.223005 C299.654920 1107.801130 317.996259 1117.447004 338.703412 1119.966658 C349.343030 1121.261091 359.361646 1120.663069 369.134869 1116.691267 C377.369122 1113.344831 383.862592 1117.669661 384.340527 1126.653303 C384.645520 1132.385603 381.474957 1136.510481 379.144055 1141.044661 C378.098126 1143.079206 377.768872 1143.290876 380.421277 1143.860823 C396.450177 1147.304914 412.407300 1151.082869 428.387708 1154.752302 C428.993726 1154.891340 429.592725 1155.061018 430.194959 1155.216536 C429.745862 1155.687971 429.367261 1156.274031 428.830945 1156.603621 C428.050671 1157.082869 427.145825 1157.354231 426.312817 1157.753279 C414.491162 1163.415022 402.650342 1169.037825 390.880292 1174.805159 C389.336957 1175.561384 386.406018 1176.286238 389.096234 1179.154036 C391.541882 1181.761213 393.710156 1184.633528 396.209027 1187.184919 C402.699323 1193.811506 409.437634 1200.199080 415.825879 1206.920637 C422.222485 1213.650862 428.314832 1220.670149 434.541028 1227.562361 C435.074963 1228.153181 435.612378 1228.740950 436.148206 1229.330305 C435.206189 1229.470198 434.175549 1229.930281 433.336438 1229.698225 C427.816296 1228.170881 422.372510 1226.362288 416.838330 1224.891829 C401.364026 1220.780500 385.857404 1216.790876 370.366162 1212.743269 C369.700879 1212.569319 369.061688 1212.295271 368.410352 1212.067976 C368.760449 1212.872663 368.893414 1213.934553 369.494397 1214.442244 C375.131268 1219.203474 380.520062 1224.354475 386.603345 1228.472883 C404.904675 1240.863264 423.325696 1253.093611 442.005078 1264.903791 C458.778088 1275.508650 476.614880 1284.153791 495.191785 1291.172834 C506.667188 1295.508528 518.289502 1297.485945 530.569470 1294.023054 C544.821423 1290.004133 558.227612 1284.004499 570.751294 1276.417219 C580.370313 1270.589827 587.126233 1262.143538 586.327771 1249.552351 C585.920239 1243.125837 583.847485 1238.154524 578.245313 1234.724592 C572.166882 1231.003157 571.253247 1226.739607 572.454663 1220.573713 C573.371289 1215.869856 576.198438 1211.494368 578.427625 1207.100691 C581.716748 1200.617903 585.900159 1194.505232 588.479199 1187.766706 C591.771863 1179.163801 588.416333 1173.481550 579.828748 1170.749250 C578.798413 1170.421492 577.669385 1170.257429 576.758130 1169.723738 C564.093884 1162.305769 555.872815 1140.931013 559.597241 1126.765852 C562.450330 1115.915022 567.926892 1107.394880 576.326978 1099.710798 C586.596326 1090.316755 598.643506 1084.922590 611.486463 1082.064802 C626.524915 1078.718367 642.118176 1077.924543 657.420850 1075.683088 C666.284375 1074.384748 675.313306 1073.250471 683.801709 1070.567732 C699.096814 1065.733992 711.908215 1057.079817 716.594312 1040.695417 C720.346387 1027.576887 718.727796 1014.316755 714.404797 1001.437117 C708.759534 984.618391 699.937390 969.835310 686.240003 958.284040 C673.758557 947.758284 659.959180 939.679609 643.658582 936.788435 C626.475232 933.740705 614.731030 923.835981 607.257642 908.493025 C601.078992 895.808088 600.500623 882.692671 603.052564 868.789106 C607.928784 842.222578 622.285779 821.509626 641.739758 804.048140 C650.503064 796.182417 660.878613 790.285566 671.844434 785.397810 C683.431531 780.233137 695.515942 777.773664 707.842297 775.687239 C715.708630 774.355757 723.814099 773.287336 731.146863 770.406721 C735.213941 768.809126 738.045361 763.839643 741.141492 760.145002 C741.988110 759.134687 741.778394 757.239241 742.053479 755.749983 C743.778455 756.679792 745.745435 757.339521 747.164380 758.610945 C748.774915 760.053938 750.577893 761.859846 751.109937 763.828779 C753.387891 772.258467 755.180005 780.818159 757.241834 789.307966 C759.384229 798.129805 761.773755 807.086836 771.979138 809.809309 C776.352857 810.976057 781.249585 811.161787 785.767285 810.618086 C797.330579 809.226179 805.995252 802.823530 811.116589 792.560102 C817.375012 780.017927 816.556592 766.292707 813.902295 753.263105 C810.787610 737.973494 805.622693 723.094709 801.211804 708.077497 C793.270520 681.040876 785.232739 654.032637 777.227002 627.014997 C770.233350 603.412886 763.102307 579.850508 756.271985 556.201277 C751.593030 540.001143 747.126416 523.712019 750.219922 506.526533 C751.743909 498.060347 754.599317 490.236189 760.503674 483.739637 C765.391370 478.361860 770.292005 472.989027 774.991712 467.448469 C790.106824 449.629377 786.074658 431.461378 774.710462 416.344343 C767.631360 406.927473 757.628186 399.493605 745.664685 395.669325 C737.605359 393.093000 729.854321 389.568342 721.855176 386.784437 C698.979810 378.823286 676.035291 371.061506 653.144727 363.143812 C642.445691 359.443068 631.585950 356.655592 620.766309 361.869368 C613.783826 365.234083 607.159558 369.458479 600.714673 373.801985 C576.584180 390.064741 552.297131 406.122175 528.664746 423.086775 C515.058789 432.853834 502.523389 444.126570 489.647290 454.890486 C481.609754 461.609449 473.819043 468.624556 465.950330 475.544050 C462.411450 478.655989 458.991284 481.903028 455.445813 485.007277 C452.463696 487.618361 451.102307 490.948957 452.623303 494.518446 C455.687207 501.708723 464.643262 506.843611 472.369824 504.095228 C479.194714 501.667524 486.034863 499.272017 492.786084 496.650618 C500.941358 493.484022 508.354566 494.232374 515.558850 499.476606 C523.531995 505.280470 527.663526 513.668074 530.002942 522.501631 C533.533948 535.834700 535.678235 549.544416 538.186475 563.135603 C539.795422 571.853743 540.913464 580.661299 542.406262 589.402327 C544.263562 600.277510 546.362866 611.111494 548.202466 621.989485 C549.682507 630.741133 550.643018 639.588667 552.356091 648.290876 C554.539319 659.381514 555.270459 670.482038 553.146192 681.569258 C551.442029 690.463728 546.791028 697.800703 539.320203 703.148054 C532.485852 708.040022 524.656018 708.162886 516.228406 707.249983 M539.728406 1314.749983 C537.396985 1314.749983 535.061597 1314.661726 532.734876 1314.766829 C526.103162 1315.066267 523.041943 1318.038801 523.228345 1323.879866 C523.378735 1328.592878 526.457166 1331.223860 532.895520 1330.616682 C539.446546 1329.999006 545.952405 1328.544538 552.374951 1327.021955 C558.894727 1325.476301 565.728467 1330.524885 566.317273 1337.071272 C567.193555 1346.814558 558.625012 1355.325788 548.945569 1354.470076 C541.017468 1353.768904 532.677014 1351.826033 525.656690 1348.219587 C516.348645 1343.438337 508.112927 1336.551130 499.480786 1330.477522 C491.911023 1325.151228 484.678113 1320.146955 474.394788 1324.484724 C470.284497 1326.218611 465.364087 1324.430159 461.950330 1320.126204 C458.101758 1315.274153 453.892896 1310.613020 449.299756 1306.468367 C442.219129 1300.078962 435.740613 1299.208235 431.549878 1302.838240 C425.864453 1307.762922 419.271375 1308.130842 411.907727 1307.167952 C404.169354 1306.155989 396.126477 1306.073591 388.374646 1306.962873 C380.854260 1307.825300 377.802075 1314.940290 381.564893 1321.453718 C384.316754 1326.217146 387.794934 1330.568586 391.036786 1335.040144 C397.320661 1343.707869 403.171643 1352.475935 398.218396 1363.902449 C394.381543 1372.753523 385.728345 1376.708235 379.901502 1370.850203 C376.816113 1367.748274 373.746350 1364.514265 371.319745 1360.902937 C368.289624 1356.393415 364.125256 1355.298201 359.313611 1355.810774 C354.845014 1356.286848 355.861646 1360.009626 355.088788 1363.100569 C349.598828 1385.056379 333.194318 1398.425154 312.616712 1401.529890 C298.691907 1403.630964 284.966382 1400.777571 272.043012 1394.766462 C254.826032 1386.758406 240.896069 1374.377913 228.707776 1360.325056 C221.175977 1351.641096 215.071423 1341.495588 209.546185 1331.342268 C198.483594 1311.013777 180.817334 1301.142683 158.844953 1298.940290 C134.852322 1296.535383 112.518170 1302.440901 92.854382 1316.794294 C81.327374 1325.208479 75.259015 1337.100569 73.290631 1351.000959 C71.216992 1365.644880 79.202527 1376.593855 88.084439 1386.642927 C94.935010 1394.393782 100.141644 1402.262190 99.296613 1413.139997 C98.851300 1418.872175 94.860410 1422.006086 90.821637 1424.313948 C87.100522 1426.440168 82.579343 1426.885359 78.344373 1423.516340 C71.483838 1418.058699 61.582120 1421.795881 57.261411 1427.203596 C48.893704 1437.676497 52.084012 1455.230085 63.195599 1462.806623 C72.672192 1469.268171 83.182630 1473.107527 93.891126 1476.872297 C107.683957 1481.721418 121.829602 1486.220808 134.621732 1493.103865 C152.187604 1502.555525 168.966565 1513.605818 185.443616 1524.903181 C199.185956 1534.325544 211.977704 1545.129744 225.247968 1555.246565 C235.477277 1563.045149 244.664411 1572.401228 257.043897 1577.037092 C264.037396 1579.656233 271.179517 1580.503523 277.562329 1575.752913 C281.111188 1573.111555 284.168164 1569.706404 287.076734 1566.326887 C295.595502 1556.428938 306.820996 1550.458357 318.563428 1545.934431 C334.929151 1539.629133 351.871869 1536.517561 369.786450 1538.541609 C386.329419 1540.410627 401.224683 1545.831892 415.390698 1554.189558 C417.503735 1555.436140 420.973218 1555.634260 423.384107 1554.900862 C432.055127 1552.262434 434.572583 1543.553572 437.496777 1536.807600 C440.043775 1530.931868 443.208264 1526.700056 448.120679 1523.523176 C451.484570 1521.347761 453.921643 1522.869978 454.214551 1526.678205 C454.923779 1535.898420 455.341931 1545.146711 456.280652 1554.342390 C457.641309 1567.672224 461.384900 1580.327009 468.706189 1591.670027 C475.298352 1601.883284 483.757520 1609.838118 495.624768 1613.939802 C498.325818 1614.873274 498.286389 1614.625227 498.234204 1612.409407 C498.096509 1606.569319 498.575940 1600.642317 497.733655 1594.907820 C496.344129 1585.447981 493.331677 1576.187727 492.412915 1566.706770 C491.083447 1552.986311 492.588818 1539.245710 496.555737 1526.010481 C504.756299 1498.650862 519.412671 1474.683210 536.444043 1452.045393 C547.760938 1437.003279 559.817517 1422.459944 570.247327 1406.828840 C577.075818 1396.595198 579.519849 1384.613630 575.302442 1372.086164 C573.355237 1366.302107 570.769849 1361.168440 565.629224 1357.690657 C562.892774 1355.839094 563.382520 1354.174299 565.790234 1352.767073 C567.364209 1351.847273 569.171887 1351.046003 570.954846 1350.818220 C576.066663 1350.165754 580.555005 1351.967878 584.784192 1354.772932 C598.553235 1363.905012 604.973157 1362.394636 617.355603 1352.660749 C622.157910 1348.885725 625.006909 1342.387800 628.150220 1336.795515 C632.905469 1328.335066 638.096509 1320.403425 645.990186 1314.433699 C664.067883 1300.762068 684.734631 1299.861311 705.765820 1303.053572 C716.731885 1304.718122 727.371961 1308.648420 738.087964 1311.797590 C744.385693 1313.648664 750.472791 1313.108747 754.829297 1308.431501 C766.127393 1296.301741 766.431104 1281.842634 754.419202 1269.691389 C747.579236 1262.772078 738.662427 1258.545271 729.263989 1255.767683 C708.767041 1249.710066 688.237195 1243.763533 667.729321 1237.742659 C658.223462 1234.951765 648.754224 1232.035017 639.233594 1229.296370 C636.002454 1228.366926 633.090466 1230.602766 633.321484 1233.980330 C633.465100 1236.080671 634.438855 1238.147932 635.179578 1240.179060 C636.815625 1244.665266 639.123975 1248.994734 640.109143 1253.611921 C642.281323 1263.792463 635.558423 1269.947615 628.796277 1275.713118 C621.140881 1282.240583 611.382337 1282.920515 602.060132 1284.768171 C593.526441 1286.459578 584.805859 1287.511824 577.351575 1292.722151 C568.802808 1298.697371 562.562879 1311.137068 568.565381 1320.237410 C570.957410 1323.863997 568.101453 1323.495710 566.985303 1323.610456 C564.989514 1323.815779 562.772229 1323.527449 560.883740 1322.817122 C554.111829 1320.270247 547.438855 1317.460310 539.728406 1314.749983 M558.728467 1299.749983 C561.289258 1296.189192 563.835523 1292.617781 566.419446 1289.073957 C567.205090 1287.996443 568.094800 1286.994734 568.936780 1285.958357 C567.704297 1286.051863 566.407239 1285.928694 565.249829 1286.274031 C557.417859 1288.610090 550.936475 1293.242781 545.178784 1298.834822 C543.675488 1300.294905 543.184400 1302.797224 542.228406 1304.820784 C546.086682 1306.130476 549.913281 1307.554914 553.833508 1308.640852 C554.511670 1308.828718 555.595899 1307.596174 556.473523 1306.991926 C556.742627 1306.806746 557.105237 1306.560530 557.158460 1306.290022 C557.552869 1304.284040 557.880078 1302.264997 558.728467 1299.749983 M363.228406 627.249983 C363.308637 625.330183 364.117871 623.009871 363.326215 621.569136 C361.312543 617.904402 358.925214 620.905317 356.506452 621.661787 C352.481549 622.920454 353.143414 626.039351 353.501660 628.769819 C353.551221 629.147505 357.301648 629.225691 359.314526 629.088179 C360.477551 629.008650 361.592084 628.219709 363.228406 627.249983 M552.728406 1337.749861 C551.249402 1337.895613 549.525220 1337.625959 548.364514 1338.311018 C547.328992 1338.922224 546.916089 1340.588240 546.228406 1341.788679 C547.326062 1342.109114 548.405835 1342.573347 549.526013 1342.712263 C550.826306 1342.873762 552.171094 1342.656843 553.479199 1342.783552 C554.318372 1342.864973 555.126172 1343.270124 555.948071 1343.530256 C555.789441 1342.518049 555.791516 1341.443342 555.428174 1340.510847 C555.042188 1339.520247 554.309644 1338.664534 552.728406 1337.749861 z"/><path class="selected"  fill="#000000" opacity="1.000000" stroke="none" 
 	d="
M92.228406 536.749983 C89.911740 530.674543 91.701764 525.948164 95.613233 521.965437 C98.153211 519.379194 101.268475 518.824751 104.744351 520.717451 C114.096219 525.809736 123.918271 530.151533 132.824185 535.918013 C141.747327 541.695601 148.861646 549.371992 151.564008 560.424665 C152.951459 566.099226 151.936627 571.085005 148.307630 574.886274 C144.317044 579.066206 138.542432 578.776350 133.639569 576.508589 C122.830716 571.508894 112.652234 565.374128 105.270612 555.689924 C100.709592 549.706099 96.561734 543.407331 92.228406 536.749983 M140.228406 558.249983 C131.252988 546.794966 119.336759 539.197309 106.603146 532.691694 C106.313687 532.543867 105.493298 532.923506 105.246945 533.281599 C102.578702 537.160627 105.278928 540.341963 107.200284 543.062910 C114.912686 553.984846 125.396985 561.542280 137.640714 566.720442 C138.691708 567.164900 140.787244 567.611982 140.917096 567.343061 C141.550214 566.031843 142.016187 564.447493 141.888272 563.018232 C141.772351 561.723005 140.814847 560.503096 140.228406 558.249983 z"/><path class="selected"  fill="#000000" opacity="1.000000" stroke="none" 
 	d="
M839.978406 717.499983 C852.456128 709.784773 864.469739 719.019453 868.763989 730.098188 C874.202161 744.127974 873.667920 758.599531 867.238355 772.555891 C861.601209 784.791914 851.919385 781.566023 845.829419 774.537458 C837.074231 764.432966 832.624036 751.909895 831.419019 738.686750 C830.698071 730.776411 833.033826 723.168379 839.978406 717.499983 M860.228406 763.249983 C863.033460 752.863447 862.717236 742.439009 859.010266 732.476789 C857.679517 728.900312 853.980542 726.018538 849.281384 726.204512 C845.475476 726.355024 842.872205 728.332869 842.505872 732.079145 C842.161817 735.597944 842.149426 739.290266 842.829358 742.741072 C844.691846 752.193342 848.710706 760.710005 855.238233 767.920515 C855.848096 768.594221 856.595960 769.143110 857.279736 769.749983 C857.929334 768.942610 858.713269 768.206770 859.191480 767.308210 C859.690503 766.370466 859.895093 765.275923 860.228406 763.249983 z"/><path class="selected"  fill="#000000" opacity="1.000000" stroke="none" 
 	d="
M307.228406 1270.749983 C319.530957 1270.553694 330.345715 1280.192976 329.302564 1291.800276 C328.690015 1298.616560 323.439649 1305.892805 317.011151 1308.065535 C314.205457 1309.013777 311.687207 1310.860456 308.859479 1311.686872 C298.074658 1314.838850 281.958905 1306.020979 279.888959 1293.192488 C278.161084 1282.483870 286.970654 1271.069929 295.094464 1270.774397 C298.967603 1270.633406 302.850140 1270.749983 307.228406 1270.749983 M302.728406 1300.749983 C307.531384 1302.038923 315.061688 1299.220930 317.479657 1293.994734 C319.329846 1289.995588 318.219495 1285.513655 314.205274 1283.873152 C310.360944 1282.302107 306.147168 1281.432844 302.012097 1280.820295 C294.816541 1279.754133 291.248242 1285.077986 291.213941 1289.561262 C291.162854 1296.235823 294.938794 1300.303083 302.728406 1300.749983 z"/><path class="selected"  fill="#000000" opacity="1.000000" stroke="none" 
 	d="
M146.228421 1080.749983 C148.443494 1084.131697 151.328565 1086.721663 152.736890 1089.954817 C155.856152 1097.115828 158.750073 1104.425764 156.310040 1112.667097 C154.815839 1117.713850 152.311871 1122.025618 147.409512 1123.580427 C142.393048 1125.171492 137.982907 1122.353621 134.716519 1118.644758 C126.045880 1108.799299 120.910169 1096.999739 119.507672 1084.195295 C118.591046 1075.827009 127.626752 1070.049910 136.532864 1073.730085 C140.060452 1075.187727 143.013684 1078.035261 146.228421 1080.749983 M146.228406 1101.249983 C144.836545 1095.817732 142.618253 1090.811628 138.194867 1087.158918 C136.551831 1085.801985 134.527371 1084.907087 132.676892 1083.801497 C132.294995 1086.051863 130.912213 1088.766829 131.703839 1090.472639 C135.203931 1098.014753 139.316113 1105.273787 143.298963 1112.585188 C143.406583 1112.782942 145.119458 1112.484968 145.145444 1112.291975 C145.594022 1108.956404 145.895062 1105.601057 146.228406 1101.249983 z"/><path class="selected"  fill="#000000" opacity="1.000000" stroke="none" 
 	d="
M263.978406 1295.999983 C266.733746 1302.951033 264.550885 1309.370832 258.564984 1313.977278 C254.247296 1317.299788 250.661237 1321.905012 245.918103 1324.276472 C234.573590 1329.948347 223.229840 1327.271223 218.855390 1315.718733 C215.475568 1306.792952 218.157239 1299.006086 225.574872 1292.886335 C234.572217 1285.463484 248.911237 1282.969465 258.954938 1290.788557 C260.747266 1292.183943 262.147290 1294.083235 263.978406 1295.999983 M235.728406 1316.749983 C243.913434 1314.749495 250.056470 1309.585798 255.641339 1303.661482 C255.983136 1303.298811 255.308179 1301.113752 254.621869 1300.783674 C249.464032 1298.302229 244.336835 1295.933455 238.206799 1297.665022 C233.061597 1299.118391 228.605298 1302.620832 228.288892 1307.044783 C227.951825 1311.758284 230.854077 1314.656721 235.728406 1316.749983 z"/><path class="selected"  fill="#000000" opacity="1.000000" stroke="none" 
 	d="
M29.228391 987.749983 C33.623029 985.083296 37.390790 982.200605 41.451077 979.816023 C44.905652 977.787214 47.210599 980.197798 48.145368 983.095198 C51.749997 994.268293 51.240460 1003.258955 41.103009 1012.365461 C37.439008 1015.656965 29.592999 1015.537031 25.159955 1012.181623 C20.201375 1008.428328 18.904927 1002.917280 22.061475 997.494673 C24.036206 994.102278 26.489682 990.988630 29.228391 987.749983 M31.728406 1000.749983 C31.122037 1005.112349 31.485104 1005.674055 34.732190 1003.575300 C37.412702 1001.842756 39.141858 998.604902 41.125394 995.910994 C41.243649 995.750349 39.901044 993.879377 39.195722 993.850813 C34.884580 993.675581 33.894895 997.378340 31.728406 1000.749983 z"/><path class="selected"  fill="#000000" opacity="1.000000" stroke="none" 
 	d="
M592.228406 1228.749983 C592.234509 1218.691389 603.722852 1207.468977 614.213269 1209.867903 C616.169690 1210.315290 618.365308 1211.922712 619.440137 1213.630598 C623.725598 1220.440413 620.272717 1234.453352 613.513013 1238.965193 C608.212781 1242.502913 600.620068 1241.604841 596.784314 1236.718733 C594.996045 1234.440779 593.730725 1231.752302 592.228406 1228.749983 M603.228406 1227.249983 C601.621533 1229.868269 601.188855 1232.772200 605.139783 1232.565290 C609.429212 1232.340803 610.925244 1228.157576 612.106030 1224.631330 C612.571790 1223.240461 611.667981 1221.390730 611.387708 1219.749861 C609.018323 1221.232893 606.606275 1222.654402 604.310193 1224.243391 C603.753430 1224.628645 603.578687 1225.566267 603.228406 1227.249983 z"/><path class="selected"  fill="#000000" opacity="1.000000" stroke="none" 
 	d="
M269.978406 1345.499983 C274.058362 1338.870588 279.549390 1335.735334 285.114240 1336.750105 C289.591840 1337.566633 296.511456 1344.004866 297.228375 1348.021711 C298.264356 1353.826033 294.658978 1361.702253 289.571118 1364.749861 C285.204633 1367.365339 277.614789 1365.332747 273.624921 1361.880110 C268.190442 1357.177473 266.541669 1352.216413 269.978406 1345.499983 M281.728436 1349.749983 C280.561749 1351.566633 279.395093 1353.383284 278.228406 1355.199934 C280.018598 1355.093122 281.861493 1355.215193 283.585004 1354.818464 C285.514539 1354.374128 287.400678 1353.585920 289.167340 1352.677961 C289.744092 1352.381697 289.887067 1351.241316 290.228406 1350.486921 C287.561749 1350.074568 284.895093 1349.662214 281.728436 1349.749983 z"/><path class="selected"  fill="#000000" opacity="1.000000" stroke="none" 
 	d="
M541.228406 1132.749983 C550.193738 1133.745955 554.975171 1145.079573 554.039258 1151.266340 C553.785962 1152.940168 551.436353 1155.192854 549.688367 1155.588972 C542.212415 1157.283186 530.512036 1152.050642 532.244824 1141.963240 C533.077100 1137.117903 537.101331 1135.087629 541.228406 1132.749983 z"/><path class="selected"  fill="#000000" opacity="1.000000" stroke="none" 
 	d="
M461.478406 1479.499983 C462.561719 1481.397810 464.017102 1483.006330 464.124158 1484.700056 C464.681165 1493.516462 465.816235 1502.454206 464.875501 1511.146833 C464.329968 1516.187239 458.752088 1519.606428 453.458569 1519.536604 C447.383313 1519.456282 441.156934 1518.330915 435.312879 1516.593855 C428.896985 1514.686995 425.112805 1508.452497 428.265759 1500.482771 C432.124646 1490.728743 437.743115 1482.273787 447.327527 1477.177717 C452.517957 1474.417952 456.916272 1475.153791 461.478406 1479.499983 M449.728467 1509.749983 C451.703931 1507.441267 454.439038 1505.419538 455.449597 1502.745955 C456.546216 1499.845076 455.925122 1496.325666 456.258496 1493.097151 C456.623914 1489.559187 454.980664 1487.804304 451.763501 1488.879866 C449.055005 1489.785505 446.362744 1491.458967 444.333264 1493.468977 C442.411328 1495.372297 441.344251 1498.145857 439.939282 1500.558821 C439.621594 1501.104475 439.192273 1501.779036 439.269055 1502.330915 C440.302625 1509.752790 440.322583 1509.749983 449.728467 1509.749983 z"/><path class="selected"  fill="#000000" opacity="1.000000" stroke="none" 
 	d="
M437.978406 1432.999983 C439.561780 1437.684919 440.999585 1442.091780 442.196851 1446.563093 C443.241406 1450.464216 440.192090 1450.210920 438.190442 1449.611067 C436.354260 1449.060896 434.315869 1447.686750 433.313367 1446.083723 C422.510449 1428.809919 411.873547 1411.431868 401.265271 1394.037214 C400.320538 1392.488020 399.319623 1390.608870 399.358991 1388.906477 C399.423261 1386.129744 399.447186 1382.213728 401.126050 1380.943830 C402.700910 1379.752546 407.010877 1380.482405 409.062207 1381.896955 C420.560986 1389.826643 427.623120 1400.468367 429.497388 1414.790876 C430.202527 1420.179670 433.944592 1425.174788 436.331067 1430.336042 C436.719556 1431.176374 437.258862 1431.947126 437.978406 1432.999983 z"/></svg>