<?xml version="1.0" encoding="utf-8"?><!DOCTYPE svg PUBLIC "-//W3C//DTD SVG 1.1//EN" "http://www.w3.org/Graphics/SVG/1.1/DTD/svg11.dtd"><svg version="1.1" id="Contours" xmlns="http://www.w3.org/2000/svg" xmlns:xlink="http://www.w3.org/1999/xlink" x="0px" y="0px" width="876.026001px" height="876.026001px" viewBox="-0.000001 0.000000 876.026001 71.377777" enable-background="new 0 0 876.026001 876.026001" xml:space="preserve" stroke="black" fill="none" stroke-linecap='round' stroke-linejoin='round'><path class="selected"  fill="#000000" opacity="1.000000" stroke="none" 
 	d="
M2.378404 1.316810 C4.984063 0.365232 6.436077 4.295591 6.406573 7.069412 C6.305939 16.530577 6.205304 25.991739 6.104669 35.452900 C6.025479 42.897967 12.008074 49.936763 19.368579 51.058493 C26.729083 52.180222 34.536798 47.243047 36.678928 40.112369 C37.604482 37.031406 37.557286 33.754139 37.502147 30.537629 C37.372297 22.962762 37.242447 15.387894 37.112596 7.813027 C37.083698 6.127221 37.086118 4.326810 38.008888 2.915686 C38.931659 1.504561 41.147126 0.823832 42.325260 2.029973 C43.075459 2.798006 43.135571 3.985017 43.150901 5.058534 C43.262090 12.844526 43.373278 20.630519 43.484467 28.416512 C43.549611 32.978260 43.602187 37.631115 42.238233 41.984668 C39.449077 50.887272 30.311096 57.371454 20.986857 57.064345 C11.662618 56.757236 2.971113 49.685810 0.773810 40.618969 C-0.085995 37.071117 -0.030299 33.374166 0.030317 29.724119 C0.162922 21.739170 0.295527 13.754220 0.428132 5.769271 C0.456844 4.040361 0.754180 1.909975 2.378406 1.316813 z"/><path class="selected"  fill="#000000" opacity="1.000000" stroke="none" 
 	d="
M52.646713 29.555755 C53.136046 27.484113 53.847552 25.452023 54.919471 23.612965 C57.658160 18.914283 62.822255 15.721190 68.249516 15.370656 C73.676776 15.020121 79.208721 17.522381 82.529089 21.829722 C82.423312 16.850093 82.317534 11.870464 82.211757 6.890834 C82.174657 5.144334 82.174121 3.268509 83.163461 1.828772 C84.152802 0.389034 86.537874 -0.188715 87.622166 1.180939 C88.203195 1.914882 88.230675 2.929383 88.232198 3.865474 C88.257993 19.717311 88.283788 35.569149 88.309582 51.420986 C88.311361 52.513896 88.265907 53.728760 87.498909 54.507328 C86.449725 55.572339 84.534327 55.186319 83.499878 54.106991 C82.465428 53.027663 82.083816 51.497715 81.741533 50.042422 C77.336757 57.329421 65.988762 58.163506 59.358365 52.821200 C52.727968 47.478894 50.689326 37.842553 52.646714 29.555755 M82.622305 37.356305 C82.999909 32.468506 81.556858 27.294096 78.049800 23.868646 C74.542742 20.443196 68.832337 19.171585 64.515379 21.494736 C59.676183 24.098927 57.791595 30.196065 57.909373 35.690219 C58.055130 42.489522 61.715919 50.148593 68.426339 51.254044 C75.779761 52.465422 82.048274 44.786697 82.622304 37.356305 z"/><path class="selected"  fill="#000000" opacity="1.000000" stroke="none" 
 	d="
M330.424211 4.790182 C330.539619 2.818753 331.219798 0.256220 333.193559 0.192035 C335.323644 0.122764 336.042855 2.987525 336.056250 5.118695 C336.149904 20.019847 336.243559 34.920996 336.337213 49.822145 C336.345986 51.217898 336.329466 52.704467 335.567613 53.873989 C334.805760 55.043512 333.001183 55.635956 331.987124 54.676848 C330.696155 53.455836 331.292738 50.561928 329.549433 50.217888 C325.284382 56.562627 315.705096 57.996802 309.098852 54.149217 C302.492607 50.301632 299.003362 42.262166 299.378591 34.626357 C299.737117 27.330426 303.645712 19.974413 310.208789 16.767361 C316.771865 13.560310 325.816588 15.561243 329.421759 21.914344 C329.755910 16.206290 330.090060 10.498236 330.424211 4.790182 M306.085057 40.120723 C306.591564 42.905106 307.468468 45.728004 309.353926 47.838546 C313.066222 51.994017 320.093974 52.082495 324.542550 48.727013 C328.991126 45.371532 330.915140 39.361951 330.305699 33.823208 C329.459192 26.129948 322.236840 18.575187 314.754270 20.553563 C307.158680 22.561819 304.678939 32.390979 306.085057 40.120722 z"/><path class="selected"  fill="#000000" opacity="1.000000" stroke="none" 
 	d="
M439.535501 42.792628 C438.158960 48.425562 433.874466 53.263581 428.449292 55.311093 C423.024119 57.358605 416.611475 56.557789 411.856454 53.238965 C407.099508 49.918797 404.172660 44.329094 403.476782 38.569945 C402.580322 31.150756 405.459897 23.190698 411.419994 18.682346 C417.380092 14.173994 426.342186 13.726696 432.296369 18.242857 C436.255064 21.245470 438.581917 25.966131 439.865840 30.765974 C440.320492 32.465651 440.609127 34.450652 439.528611 35.839211 C438.373133 37.324103 436.210934 37.441178 434.329472 37.429585 C427.263067 37.386043 420.196662 37.342502 413.130257 37.298961 C410.253644 37.281236 409.553843 41.510539 410.775446 44.114939 C414.138448 51.284701 425.146335 53.222432 430.755519 47.632054 C433.334780 45.061443 436.395765 40.947985 439.535500 42.792624 M414.058419 32.877277 C419.554834 32.672293 425.051249 32.467309 430.547664 32.262325 C432.098261 32.204497 434.213817 31.480832 433.888684 29.963603 C432.792216 24.846997 428.051124 20.740774 422.830387 20.386100 C417.609650 20.031426 412.356764 23.458702 410.578366 28.380001 C410.129171 29.623042 409.951176 31.183273 410.886337 32.117297 C411.679189 32.909185 412.938617 32.919040 414.058419 32.877279 z"/><path class="selected"  fill="#000000" opacity="1.000000" stroke="none" 
 	d="
M766.604118 41.475555 C765.034434 33.884487 766.279134 25.260546 771.732972 19.752019 C777.186810 14.243493 787.367240 13.392252 792.426421 19.265318 C793.030637 19.966734 793.598860 20.775519 794.464535 21.103647 C795.330210 21.431775 796.567195 20.924785 796.536888 19.999506 C796.386002 15.393400 796.235118 10.787297 796.084235 6.181194 C795.991645 3.354653 797.265980 -0.655791 799.993644 0.091040 C801.893657 0.611262 802.266933 3.102291 802.267735 5.072234 C802.273909 20.231410 802.280084 35.390586 802.286258 50.549762 C802.286770 51.806707 802.268087 53.135794 801.614731 54.209590 C800.961375 55.283386 799.430100 55.926865 798.404824 55.199733 C796.870959 54.111909 797.580802 51.052989 795.804867 50.434800 C792.480100 54.482653 787.117791 56.764480 781.895690 56.353581 C776.673588 55.942682 771.734149 52.850266 769.083387 48.332231 C767.847979 46.226567 767.098477 43.866300 766.604118 41.475555 M772.801736 28.636241 C772.137987 31.193459 772.385872 33.903868 771.893276 36.499494 C770.788556 42.320519 774.573817 48.667136 780.220504 50.461476 C785.867191 52.255816 792.621690 49.258405 795.079791 43.867443 C796.249634 41.301815 796.500316 38.404480 796.364840 35.587989 C796.122221 30.544041 794.427554 25.196098 790.314984 22.265732 C784.370101 18.029771 774.635662 21.570710 772.801738 28.636240 z"/><path class="selected"  fill="#000000" opacity="1.000000" stroke="none" 
 	d="
M634.313630 61.349355 C637.995568 66.320781 645.617062 67.824380 650.911208 64.623793 C656.205354 61.423205 658.415529 53.975850 655.724378 48.405441 C649.931418 55.495362 637.786576 55.997728 631.427864 49.410456 C628.775881 46.663149 627.159337 43.031429 626.396544 39.289924 C625.023803 32.556614 626.522404 25.039095 631.277051 20.077722 C636.031697 15.116350 644.224854 13.399519 650.100288 16.963387 C652.186194 18.228637 654.785730 20.102809 656.730595 18.629935 C657.656628 17.928636 658.097514 16.590855 659.205819 16.242979 C661.195760 15.618374 662.241535 18.541603 662.246760 20.627262 C662.271331 30.434872 662.295903 40.242483 662.320474 50.050093 C662.330988 54.246532 662.306699 58.606037 660.502761 62.394970 C658.223439 67.182384 653.238073 70.387120 647.993477 71.167408 C642.748880 71.947695 637.329012 70.496969 632.754381 67.816039 C630.879767 66.717436 628.982589 65.198204 628.616652 63.056433 C628.250715 60.914661 630.461570 58.448734 632.425331 59.378647 C633.257068 59.772504 633.765916 60.609821 634.313630 61.349355 M654.891727 41.845120 C657.737495 36.035924 656.986398 28.370949 652.333877 23.876597 C647.681355 19.382246 639.210571 19.228409 635.019654 24.156021 C633.176579 26.323076 632.270391 29.156229 631.931956 31.980855 C631.419744 36.255848 632.189541 40.800393 634.712580 44.289261 C637.235618 47.778129 641.670726 50.000172 645.912664 49.262691 C649.883853 48.572283 653.118503 45.464881 654.891727 41.845120 z"/><path class="selected"  fill="#000000" opacity="1.000000" stroke="none" 
 	d="
M507.420634 34.216757 C507.367939 35.052106 507.232775 35.939223 506.677506 36.565531 C505.868672 37.477844 504.485041 37.524704 503.265997 37.503277 C496.001369 37.375586 488.736741 37.247895 481.472113 37.120204 C478.016598 37.059466 477.142743 42.228080 478.849440 45.233318 C482.571116 51.786612 493.079269 52.926041 498.119111 47.322784 C499.414291 45.882815 500.416968 44.079800 502.130292 43.176741 C503.843616 42.273682 506.590228 43.042470 506.635731 44.978684 C506.647888 45.495987 506.462464 45.996309 506.256873 46.471159 C502.411859 55.351930 490.157197 58.861336 481.639918 54.266970 C473.122640 49.672604 469.179328 38.583583 471.771028 29.259671 C472.500819 26.634171 473.683615 24.119728 475.368366 21.977893 C480.067098 16.004365 488.798693 13.590035 495.898767 16.301133 C502.998842 19.012232 507.899100 26.631759 507.420634 34.216757 M477.874862 31.759245 C477.871882 32.255865 478.060554 32.913138 478.556934 32.897402 C486.125675 32.657414 493.694415 32.417429 501.263155 32.177444 C501.446759 26.009406 495.950390 20.244765 489.780606 20.134445 C483.610823 20.024125 477.911881 25.588587 477.874862 31.759245 z"/><path class="selected"  fill="#000000" opacity="1.000000" stroke="none" 
 	d="
M723.205178 17.766646 C717.387877 21.646957 712.122773 26.353782 707.617381 31.701608 C707.149011 32.257556 707.577550 33.091127 708.009629 33.675726 C713.262638 40.782995 718.982856 47.544891 725.121112 53.903286 C724.047877 55.614496 721.596870 56.006888 719.702331 55.306321 C717.807792 54.605755 716.354353 53.079112 715.019640 51.562995 C711.638780 47.722630 708.548996 43.626078 705.785524 39.320054 C704.025307 36.577297 699.395279 37.502420 697.595731 40.219534 C695.796183 42.936647 695.996125 46.466793 696.311064 49.710540 C696.542845 52.097797 696.154234 55.359553 693.773325 55.649362 C691.184199 55.964513 690.187798 52.392241 690.192045 49.784010 C690.215495 35.382825 690.238945 20.981639 690.262395 6.580454 C690.265187 4.865805 690.309036 3.020378 691.329054 1.642121 C692.349073 0.263863 694.739777 -0.184861 695.705102 1.232241 C696.153343 1.890261 696.175228 2.739115 696.181457 3.535275 C696.263529 14.026324 696.345601 24.517373 696.427673 35.008421 C700.926139 30.504508 705.424605 26.000595 709.923071 21.496682 C711.739611 19.677941 713.621445 17.814636 715.995913 16.829984 C718.370380 15.845333 721.387924 15.948616 723.205178 17.766643 z"/><path class="selected"  fill="#000000" opacity="1.000000" stroke="none" 
 	d="
M591.658255 34.734320 C591.491173 35.583234 591.209699 36.482736 590.511466 36.993658 C589.829210 37.492888 588.917147 37.501323 588.071827 37.489587 C580.698019 37.387210 573.324211 37.284834 565.950402 37.182457 C562.441125 37.133735 561.776921 42.490957 563.669404 45.446615 C567.884479 52.029655 578.757198 52.750940 583.804929 46.782386 C585.100512 45.250460 586.139522 43.319033 588.002255 42.573681 C589.864989 41.828329 592.605085 43.602387 591.691015 45.388389 C586.887025 54.774898 573.755068 59.431371 564.870518 53.752492 C561.876677 51.838871 559.540415 48.990008 557.960455 45.807438 C554.447724 38.731615 554.846374 29.711896 559.470782 23.307101 C564.095189 16.902305 572.940046 13.685453 580.438469 16.171454 C587.936892 18.657454 593.183818 26.983243 591.658255 34.734320 M565.061745 32.837243 C570.696514 32.659718 576.331283 32.482193 581.966052 32.304669 C583.680439 32.250657 585.822864 31.880055 586.276062 30.225771 C586.480047 29.481178 586.245096 28.689411 585.945831 27.977744 C584.005465 23.363458 579.057309 20.192349 574.054352 20.356888 C569.051395 20.521428 564.322292 24.010808 562.689305 28.742616 C562.211633 30.126733 562.191680 32.036954 563.522261 32.648105 C563.996579 32.865961 564.540049 32.853679 565.061745 32.837244 z"/><path class="selected"  fill="#000000" opacity="1.000000" stroke="none" 
 	d="
M835.912717 48.130217 C837.515068 46.695851 838.738955 44.826063 840.552400 43.670057 C842.365846 42.514050 845.165787 42.401629 846.334086 44.207180 C841.766817 52.679681 831.468004 58.623083 822.323564 55.619346 C813.835973 52.831370 808.959944 43.152711 809.603581 34.242170 C810.006213 28.668099 812.323427 23.111356 816.551252 19.456513 C821.832213 14.891261 829.900353 13.865157 836.155929 16.963196 C842.411506 20.061234 846.485290 27.100555 846.054769 34.067960 C845.986262 35.176667 845.732775 36.413575 844.804828 37.024180 C844.145519 37.458017 843.303431 37.464525 842.514232 37.456301 C834.956183 37.377546 827.398133 37.298790 819.840084 37.220034 C816.614212 37.186420 815.813971 41.977791 817.328681 44.826130 C820.729462 51.221118 830.516071 52.961095 835.912715 48.130217 M819.269921 32.868598 C825.016245 32.664777 830.762569 32.460955 836.508894 32.257133 C837.604274 32.218280 838.837927 32.114967 839.538584 31.272087 C840.328177 30.322217 840.054602 28.891527 839.568301 27.756089 C837.658998 23.298159 832.929017 20.204623 828.079568 20.242145 C823.230118 20.279666 818.548572 23.446022 816.708478 27.932962 C816.015420 29.622932 816.016481 32.081194 817.727360 32.720897 C818.214527 32.903048 818.750144 32.887035 819.269921 32.868599 z"/><path class="selected"  fill="#000000" opacity="1.000000" stroke="none" 
 	d="
M255.070044 37.248200 C259.297274 42.251025 263.524505 47.253849 267.751735 52.256674 C268.573459 53.229164 269.439274 54.563263 268.809380 55.669699 C267.954213 57.171834 265.649033 56.350652 264.272872 55.304755 C258.528399 50.938894 253.673278 45.407949 250.088669 39.146137 C248.784474 36.867892 245.160439 36.985742 243.262685 38.799537 C241.364931 40.613333 240.829988 43.419225 240.695736 46.040923 C240.561484 48.662621 240.715136 51.365849 239.812228 53.830819 C239.607667 54.389280 239.326445 54.957034 238.827143 55.280175 C236.886924 56.535860 235.275099 53.240532 235.269689 50.929437 C235.235032 36.123587 235.200374 21.317739 235.165716 6.511891 C235.161291 4.621452 235.240200 2.517139 236.573721 1.177176 C237.907242 -0.162788 240.877471 0.365412 240.882418 2.255850 C240.907942 12.009161 240.933465 21.762473 240.958989 31.515785 C240.962865 32.997293 242.393625 35.070525 243.308874 33.905534 C246.699450 29.589771 250.355202 25.482362 254.248653 21.614178 C258.047651 17.839833 264.188862 14.189156 268.251328 17.678343 C264.311106 20.521770 260.466951 23.498316 256.727625 26.601198 C254.682269 28.298428 252.475133 30.493003 252.783821 33.132850 C252.968881 34.715434 254.041660 36.031136 255.070041 37.248202 z"/><path class="selected"  fill="#000000" opacity="1.000000" stroke="none" 
 	d="
M547.424421 33.523332 C547.372080 38.939576 547.319740 44.355821 547.267400 49.772065 C547.241693 52.432249 546.781085 55.734327 544.264559 56.597075 C541.867453 52.494020 541.800060 47.469946 542.062853 42.725254 C542.325646 37.980563 542.836532 33.101500 541.401773 28.571309 C539.967015 24.041119 535.937814 19.913663 531.190467 20.123068 C524.552294 20.415877 521.086833 28.355375 520.962567 34.998840 C520.838301 41.642305 522.374245 48.733031 519.329541 54.639033 C518.732034 55.798055 516.847297 55.583409 516.042699 54.557265 C515.238102 53.531122 515.204997 52.118142 515.207484 50.814171 C515.225908 41.158653 515.244330 31.503135 515.262753 21.847617 C515.265425 20.447488 515.295399 18.953829 516.079517 17.793859 C516.863635 16.633889 518.703469 16.088885 519.677772 17.094423 C521.861740 19.348406 525.500350 17.267601 528.402624 16.073044 C535.208981 13.271592 543.972247 17.191418 546.420718 24.132572 C547.473632 27.117471 547.455006 30.358318 547.424421 33.523332 z"/><path class="selected"  fill="#000000" opacity="1.000000" stroke="none" 
 	d="
M158.828100 23.652051 C161.062955 27.427534 161.759453 31.948491 161.621029 36.333658 C161.500741 40.144284 160.757783 44.000465 158.904111 47.332015 C154.754424 54.790123 144.785111 58.387164 136.829422 55.296813 C132.027533 53.431541 128.172215 49.468123 126.021122 44.787292 C121.888873 35.795415 124.663441 23.904606 132.859103 18.358395 C141.054765 12.812183 153.787254 15.136230 158.828099 23.652052 M147.487702 50.465170 C152.467181 48.506837 155.303799 43.023835 155.838035 37.699845 C156.641937 29.688454 151.464434 20.377236 143.416622 20.129577 C136.185040 19.907033 130.500721 27.259763 130.043582 34.480312 C129.746736 39.169019 131.210969 44.073648 134.530486 47.398236 C137.850003 50.722824 143.115575 52.184640 147.487701 50.465167 z"/><path class="selected"  fill="#000000" opacity="1.000000" stroke="none" 
 	d="
M227.064244 25.940342 C225.835928 28.125736 222.534777 26.470848 220.676539 24.788095 C217.643682 22.041648 213.902516 19.493646 209.827036 19.856484 C205.751556 20.219321 202.130133 25.026016 204.322553 28.480648 C205.690920 30.636806 208.493622 31.268620 211.002057 31.747364 C215.301906 32.568005 219.714267 33.539824 223.302639 36.046962 C226.891011 38.554100 229.483307 42.985345 228.556325 47.263529 C227.310671 53.012443 220.662420 55.812822 214.795856 56.243053 C208.126267 56.732175 200.459207 54.708912 197.440766 48.741361 C196.749750 47.375200 196.364686 45.675537 197.129351 44.349195 C197.894015 43.022852 200.181106 42.690971 200.873532 44.056417 C203.784584 49.796936 211.147466 52.835773 217.259939 50.819476 C221.090713 49.555834 224.382036 44.484981 221.457953 41.706247 C218.013083 38.432611 212.966647 37.710898 208.360781 36.540505 C203.754915 35.370113 198.754583 33.046869 197.369922 28.500824 C196.277778 24.915162 197.946974 20.868761 200.825389 18.467829 C203.703805 16.066897 207.567903 15.121146 211.315886 15.072453 C217.254489 14.995301 223.601495 17.385423 226.595814 22.514458 C227.204908 23.557789 227.656180 24.887182 227.064244 25.940342 z"/><path class="selected"  fill="#000000" opacity="1.000000" stroke="none" 
 	d="
M604.891915 17.469320 C607.192281 18.393000 609.788723 17.565917 612.104426 16.681390 C614.420129 15.796863 616.930524 14.840872 619.311037 15.532265 C621.691551 16.223657 623.379656 19.456412 621.683401 21.264059 C616.685575 20.047027 611.044820 22.157938 608.073866 26.357088 C602.873434 33.707382 606.475168 43.866551 605.113288 52.766922 C605.011765 53.430411 604.867379 54.120493 604.438822 54.637082 C603.382836 55.909983 601.147023 55.354197 600.198574 53.999269 C599.250126 52.644341 599.218381 50.872549 599.221780 49.218653 C599.240143 40.284049 599.258506 31.349444 599.276869 22.414840 C599.282101 19.869540 600.235107 16.399212 602.766819 16.661909 C603.524077 16.740486 604.185420 17.185635 604.891916 17.469318 z"/><path class="selected"  fill="#000000" opacity="1.000000" stroke="none" 
 	d="
M380.635525 19.926083 C376.372770 20.013657 372.795987 23.535490 371.286675 27.523061 C369.777363 31.510633 369.903088 35.903476 370.049301 40.164622 C370.146999 43.011859 370.244696 45.859096 370.342393 48.706333 C370.402469 50.457124 370.430258 52.331821 369.480368 53.803753 C368.530478 55.275685 366.201370 55.967592 365.011964 54.681440 C364.280886 53.890895 364.240088 52.703146 364.240450 51.626375 C364.243781 41.706175 364.247113 31.785975 364.250444 21.865776 C364.250908 20.484687 364.275903 19.016383 365.027537 17.857740 C365.779171 16.699098 367.544525 16.092876 368.573590 17.013979 C371.415502 19.557739 375.690896 16.906892 379.327222 15.756103 C384.937842 13.980506 391.623967 16.683827 394.423881 21.859953 C396.435027 25.577901 396.482165 30.006003 396.480961 34.233041 C396.479138 40.628528 396.477317 47.024015 396.475495 53.419501 C396.475260 54.246240 396.440386 55.163116 395.864685 55.756468 C394.398398 57.267715 392.084967 54.939983 391.585841 52.894320 C390.055659 46.622882 391.877921 40.041813 391.530922 33.595732 C391.183923 27.149651 387.089577 19.793492 380.635525 19.926084 z"/><path class="selected"  fill="#000000" opacity="1.000000" stroke="none" 
 	d="
M346.183652 49.474285 C346.206933 40.376764 346.230214 31.279243 346.253495 22.181722 C346.260515 19.438361 347.893779 15.548213 350.378087 16.711954 C351.703959 17.333043 351.971270 19.069921 352.048967 20.531990 C352.662375 32.074896 352.467512 43.660680 351.466277 55.176428 C350.304467 56.392756 348.087441 55.741894 347.147627 54.346901 C346.207813 52.951908 346.179348 51.156318 346.183652 49.474285 z"/><path class="selected"  fill="#000000" opacity="1.000000" stroke="none" 
 	d="
M736.813212 16.634180 C738.093665 17.383738 738.246325 19.140988 738.250567 20.624692 C738.278264 30.312087 738.305963 39.999479 738.333661 49.686871 C738.337830 51.144984 738.324978 52.673918 737.627825 53.954577 C736.930672 55.235236 735.305751 56.137224 733.981483 55.526958 C732.478314 54.834253 732.262863 52.823888 732.261593 51.168788 C732.254235 41.580239 732.246875 31.991692 732.239516 22.403145 C732.238364 20.901929 732.257512 19.320992 733.009324 18.021595 C733.761135 16.722199 735.517650 15.875779 736.813211 16.634182 z"/><path class="selected"  fill="#000000" opacity="1.000000" stroke="none" 
 	d="
M756.440993 0.968437 C757.188428 1.736181 757.235421 2.924483 757.237313 3.995971 C757.263855 19.033616 757.290398 34.071260 757.316941 49.108905 C757.321582 51.738588 757.086281 54.831019 754.863829 56.236708 C752.038673 56.128795 751.207818 52.367761 751.210523 49.540549 C751.224234 35.217128 751.237943 20.893707 751.251652 6.570286 C751.253229 4.922744 751.286772 3.165242 752.207663 1.799096 C753.128555 0.432950 755.291724 -0.212060 756.440993 0.968437 z"/><path class="selected"  fill="#000000" opacity="1.000000" stroke="none" 
 	d="
M675.820728 10.115992 C678.608380 10.844560 681.607045 7.808710 680.844178 5.030249 C680.081311 2.251789 675.952855 1.172793 673.928071 3.222686 C671.903286 5.272579 673.033077 9.387424 675.820728 10.115992 z"/><path class="selected"  fill="#000000" opacity="1.000000" stroke="none" 
 	d="
M734.675332 2.030564 C737.528373 1.570846 740.247208 4.856614 739.254248 7.570507 C738.261288 10.284400 734.052479 11.034060 732.189511 8.824867 C730.326542 6.615674 731.786626 2.586741 734.633747 2.091678 z"/><path class="selected"  fill="#000000" opacity="1.000000" stroke="none" 
 	d="
M109.327848 49.711414 C109.343206 52.642463 108.376287 56.604081 105.447030 56.500433 C103.014054 53.476492 102.972364 49.242365 103.045030 45.361860 C103.167920 38.799381 103.290810 32.236903 103.413699 25.674424 C103.434503 24.563456 103.423192 23.352454 102.730507 22.483621 C101.649214 21.127359 99.594730 21.314722 97.860201 21.307395 C96.125673 21.300069 93.926946 20.418367 94.052601 18.688381 C94.284398 15.497085 100.104021 17.856443 102.340448 15.568105 C103.353815 14.531215 103.243907 12.888537 103.343582 11.442122 C103.856846 3.993884 113.152742 -1.290430 119.815218 2.078708 C120.729873 2.541239 121.641337 3.207127 121.926056 4.191741 C122.210775 5.176354 121.508428 6.453284 120.485994 6.381477 C117.387115 6.163835 114.019686 6.110049 111.488449 7.910952 C108.957212 9.711855 108.164786 14.094191 110.770311 15.785832 C112.508992 16.914673 114.781336 16.372686 116.854100 16.403292 C118.926865 16.433897 121.458973 17.824090 121.047694 19.855872 C119.878457 21.866169 116.956676 21.545835 114.648517 21.261564 C112.340358 20.977294 109.181309 21.744893 109.193494 24.070459 C109.238279 32.617444 109.283063 41.164429 109.327848 49.711414 z"/><path class="selected"  fill="#000000" opacity="1.000000" stroke="none" 
 	d="
M351.345102 2.729017 C348.980073 1.180192 345.242321 3.066610 345.083514 5.889198 C344.924707 8.711786 348.427269 11.005565 350.951105 9.731801 C353.474942 8.458038 353.710132 4.277841 351.345102 2.729017 z"/><path class="selected"  fill="#000000" opacity="1.000000" stroke="none" 
 	d="
M174.406156 17.017953 C176.071696 18.447038 178.585475 18.319704 180.667193 17.624896 C182.748911 16.930087 184.669691 15.757023 186.815189 15.295349 C188.960688 14.833674 191.555553 15.317421 192.667061 17.209736 C193.778570 19.102051 192.051528 22.176485 189.949338 21.546319 C184.104695 19.794293 178.252887 25.296315 176.728355 31.204382 C175.203823 37.112449 176.506020 43.331610 176.569011 49.432879 C176.586219 51.099721 176.471907 52.881329 175.478465 54.219885 C174.485023 55.558440 172.309960 56.128868 171.136456 54.944998 C170.326175 54.127562 170.274659 52.848206 170.273299 51.697227 C170.261503 41.718672 170.249706 31.740117 170.237909 21.761563 C170.236329 20.425157 170.257772 19.005677 170.977923 17.879905 C171.698074 16.754132 173.391926 16.147712 174.406156 17.017953 z"/><path class="selected"  fill="#000000" opacity="1.000000" stroke="none" 
 	d="
M857.420562 17.020636 C859.054819 18.486981 861.582342 18.386326 863.666236 17.694698 C865.750131 17.003070 867.665694 15.818352 869.808832 15.340940 C871.951971 14.863528 874.554137 15.327046 875.674891 17.215135 C876.795644 19.103223 875.056038 22.187248 872.958963 21.536678 C866.903779 19.658191 860.932678 25.654688 859.569710 31.846318 C858.206743 38.037948 859.721783 44.478915 859.446824 50.812820 C859.350917 53.022114 858.346566 55.849539 856.137560 55.747222 C853.849767 55.641254 853.189744 52.597123 853.196168 50.306888 C853.222966 40.755124 853.249762 31.203361 853.276558 21.651598 C853.280262 20.331246 853.307586 18.927658 854.028551 17.821514 C854.749516 16.715370 856.437806 16.138854 857.420561 17.020635 z"/><path class="selected"  fill="#000000" opacity="1.000000" stroke="none" 
 	d="
M679.413508 18.507353 C679.401513 29.399445 679.389517 40.291538 679.377522 51.183630 C679.375845 52.705944 679.190741 54.541818 677.826671 55.217655 C675.420824 56.409646 673.648228 52.723220 673.500872 50.042320 C672.989390 40.736622 673.082887 31.397717 673.780579 22.104126 C673.910282 20.376414 674.148857 18.468177 675.455002 17.329846 C676.761147 16.191516 679.415416 16.774780 679.413508 18.507352 z"/></svg>