<?xml version="1.0" encoding="utf-8"?><!DOCTYPE svg PUBLIC "-//W3C//DTD SVG 1.1//EN" "http://www.w3.org/Graphics/SVG/1.1/DTD/svg11.dtd"><svg version="1.1" id="Contours" xmlns="http://www.w3.org/2000/svg" xmlns:xlink="http://www.w3.org/1999/xlink" x="0px" y="0px" width="2361.347900px" height="2361.347900px" viewBox="0.000007 -0.000006 2361.347900 653.750061" enable-background="new 0 0 2361.347900 2361.347900" xml:space="preserve" stroke="black" fill="none" stroke-linecap='round' stroke-linejoin='round'><path class="selected"  fill="#000000" opacity="1.000000" stroke="none" 
 	d="
M1788.597631 380.772484 C1796.100942 385.355528 1803.604252 389.938571 1811.107563 394.521615 C1792.813863 417.825085 1762.393412 431.403829 1732.937161 428.235159 C1703.480910 425.066489 1676.217247 404.722004 1665.910702 376.946362 C1655.604158 349.170719 1663.434093 315.287789 1685.670336 295.710745 C1696.535083 286.145297 1710.202466 280.076265 1724.356565 277.042787 C1735.906439 274.567442 1747.951925 274.047756 1759.544025 276.317145 C1778.328214 279.994530 1795.526333 291.209028 1806.467183 306.914654 C1817.408033 322.620281 1821.967613 342.639035 1818.907490 361.533599 C1818.704456 362.787222 1818.425789 364.120826 1817.517137 365.008039 C1816.363920 366.134046 1814.573836 366.198858 1812.962071 366.195117 C1777.648670 366.113144 1742.335269 366.031171 1707.021869 365.949198 C1704.281492 365.942837 1702.356537 369.051301 1702.656187 371.775254 C1702.955836 374.499206 1704.802620 376.784365 1706.728328 378.734072 C1725.162707 397.398156 1758.833562 397.762991 1777.668024 379.502726 C1780.515181 376.742369 1785.213405 378.705389 1788.597631 380.772484 M1772.677097 338.071603 C1774.964960 338.075041 1776.693052 335.684534 1776.734894 333.397052 C1776.776736 331.109569 1775.583265 328.990253 1774.271859 327.115543 C1766.333013 315.766625 1752.386030 308.894557 1738.549879 309.514326 C1724.713727 310.134096 1711.437015 318.225608 1704.544643 330.238867 C1703.253828 332.488727 1702.390455 335.811671 1704.517278 337.296493 C1705.448825 337.946838 1706.664623 337.972413 1707.800721 337.974120 C1729.426180 338.006615 1751.051639 338.039109 1772.677097 338.071603 z"/><path class="selected"  fill="#000000" opacity="1.000000" stroke="none" 
 	d="
M1325.894090 424.471652 C1314.085481 425.827150 1302.051681 425.199668 1290.448089 422.623382 C1290.508066 396.833375 1290.568043 371.043368 1290.628020 345.253361 C1290.644583 338.131050 1290.622525 330.799131 1287.946149 324.198782 C1281.229585 307.634717 1256.376600 302.260374 1243.416360 314.569423 C1232.454643 324.980365 1231.881633 341.964508 1232.054855 357.081285 C1232.302195 378.666075 1232.549534 400.250866 1232.796873 421.835657 C1232.814820 423.401820 1230.792044 424.015325 1229.230141 424.132159 C1216.939160 425.051553 1204.542297 424.547681 1192.366475 422.633830 C1192.515590 397.170903 1192.664706 371.707977 1192.813822 346.245050 C1192.855386 339.147530 1192.862462 331.852920 1190.294147 325.236253 C1186.238959 314.789003 1175.474662 307.318639 1164.268909 307.174877 C1153.063155 307.031115 1142.110754 314.222869 1137.788882 324.562647 C1135.013757 331.201939 1134.868119 338.601603 1134.763117 345.796775 C1134.394331 371.067624 1134.025545 396.338472 1133.656760 421.609321 C1133.633002 423.237305 1131.481174 423.769797 1129.853524 423.810476 C1120.323509 424.048653 1110.793493 424.286831 1101.263477 424.525008 C1099.611150 424.566304 1097.820333 424.566016 1096.494735 423.578758 C1094.639201 422.196821 1094.471967 419.528768 1094.472835 417.215166 C1094.489604 372.492126 1094.506374 327.769086 1094.523143 283.046046 C1094.523705 281.547294 1094.575127 279.905443 1095.559829 278.775566 C1096.607105 277.573891 1098.360066 277.347077 1099.949347 277.224616 C1111.467505 276.337092 1123.082334 276.709784 1134.519900 278.333900 C1132.783733 282.399204 1132.939397 287.227843 1134.933799 291.172881 C1157.044350 270.929547 1194.516637 270.497140 1217.088430 290.224866 C1220.824754 293.490410 1226.489869 290.414036 1230.622120 287.666600 C1245.176380 277.989787 1262.960765 272.677206 1280.318504 274.720740 C1297.676242 276.764275 1314.342637 286.660759 1322.890913 301.905236 C1331.186658 316.699367 1331.329316 334.529101 1331.258361 351.490252 C1331.164323 373.968986 1331.070286 396.447720 1330.976248 418.926454 C1330.970631 420.269285 1330.928234 421.723073 1330.096836 422.777588 C1329.135514 423.996892 1327.436649 424.294584 1325.894090 424.471652 z"/><path class="selected"  fill="#000000" opacity="1.000000" stroke="none" 
 	d="
M1492.448982 380.287974 C1500.575675 384.476895 1508.168820 389.699560 1514.987462 395.790234 C1496.531466 418.151905 1466.855403 431.129494 1438.006689 428.227802 C1409.157976 425.326111 1382.216013 406.105593 1371.221668 379.276644 C1360.227323 352.447696 1366.335728 319.143577 1386.999108 298.804138 C1397.140827 288.821411 1410.208504 282.071977 1423.953994 278.388121 C1441.726888 273.624901 1461.083938 273.946296 1478.142137 280.844258 C1508.762864 293.226608 1528.671061 327.877748 1523.945736 360.567546 C1523.732147 362.045161 1523.423512 363.618070 1522.365984 364.671920 C1521.011903 366.021280 1518.883933 366.102063 1516.972314 366.098410 C1482.258813 366.032005 1447.545312 365.965607 1412.831812 365.899208 C1409.644214 365.893111 1407.439997 369.569970 1407.886437 372.726156 C1408.332876 375.882342 1410.605348 378.453809 1412.972698 380.588398 C1431.742427 397.512648 1463.599360 397.120348 1481.946634 379.739023 C1484.669815 377.159213 1489.114713 378.569317 1492.448983 380.287972 M1407.431299 336.795776 C1408.099181 337.866924 1409.585018 337.984377 1410.847327 337.984750 C1433.099869 337.991305 1455.352411 337.997862 1477.604952 338.004419 C1478.756057 338.004759 1480.010931 337.969508 1480.895577 337.232999 C1482.509727 335.889144 1481.840539 333.292076 1480.891880 331.418184 C1474.002949 317.810447 1458.881561 308.807955 1443.635472 309.237647 C1428.389383 309.667338 1413.799043 319.507217 1407.687472 333.481356 C1407.224582 334.539756 1406.820090 335.815520 1407.431298 336.795776 z"/><path class="selected"  fill="#000000" opacity="1.000000" stroke="none" 
 	d="
M686.002375 391.981416 C687.367127 393.173855 688.858289 394.671337 688.653498 396.472036 C688.523515 397.614952 687.722715 398.553715 686.943065 399.399467 C667.646695 420.331865 638.068165 431.692998 609.865148 427.806485 C581.662130 423.919972 555.840591 404.397701 545.549982 377.853049 C535.259373 351.308397 541.568860 318.800161 561.896642 298.867865 C567.698522 293.178864 574.472059 288.520962 581.711714 284.831255 C607.535926 271.669887 640.253074 271.724761 664.849458 287.058691 C689.445842 302.392621 704.066283 333.271166 698.100250 361.635192 C697.818907 362.972769 697.428349 364.409939 696.341360 365.238624 C695.299982 366.032529 693.885447 366.064661 692.575963 366.063195 C657.457603 366.023811 622.339244 365.984431 587.220884 365.945051 C584.302973 365.941779 582.259736 369.262058 582.598843 372.160200 C582.937950 375.058341 584.933173 377.473845 587.020212 379.513082 C604.081446 396.183548 633.735891 397.731461 652.440018 382.927887 C657.394062 379.006958 664.582753 379.004248 670.470365 381.296031 C676.357977 383.587813 681.244681 387.824423 686.002375 391.981416 M583.658306 337.624623 C584.216368 337.990686 584.926659 338.002976 585.594068 338.003097 C607.890222 338.007120 630.186375 338.011143 652.482528 338.015166 C653.935829 338.015428 655.700929 337.828266 656.311406 336.509402 C656.658851 335.758780 656.489391 334.879567 656.278475 334.079776 C654.037894 325.583530 647.754339 318.419462 639.984933 314.315473 C632.215527 310.211484 623.091280 309.027442 614.374497 310.133834 C600.596455 311.882634 586.789302 320.488472 583.022802 333.856576 C582.651997 335.172637 582.515020 336.874680 583.658304 337.624624 z"/><path class="selected"  fill="#000000" opacity="1.000000" stroke="none" 
 	d="
M2153.707864 424.897054 C2149.591025 425.103629 2145.149876 425.225650 2141.726611 422.929503 C2138.303346 420.633355 2136.997791 414.906990 2140.333603 412.485546 C2136.175889 415.010737 2132.010444 417.540156 2127.631550 419.658754 C2099.225770 433.402053 2062.436234 427.206016 2040.099018 404.916662 C2017.761801 382.627307 2011.486865 345.851147 2025.169200 317.415952 C2038.851535 288.980758 2071.504983 270.936004 2102.860830 274.482467 C2116.636982 276.040598 2130.510844 281.842295 2138.892088 292.886067 C2139.049427 271.509183 2139.206767 250.132298 2139.364106 228.755412 C2139.375487 227.209161 2139.414183 225.567345 2140.257217 224.271075 C2141.744383 221.984376 2144.950491 221.769924 2147.678110 221.797320 C2156.117376 221.882100 2164.556642 221.966874 2172.995907 222.051649 C2174.549174 222.067252 2176.276042 222.152684 2177.366900 223.258536 C2178.452651 224.359210 2178.519588 226.077276 2178.519676 227.623348 C2178.523298 291.453520 2178.526920 355.283692 2178.530542 419.113863 C2178.530616 420.412300 2178.476396 421.852223 2177.572816 422.784682 C2176.691233 423.694437 2175.296697 423.813769 2174.031465 423.877258 C2167.256931 424.217187 2160.482397 424.557121 2153.707864 424.897054 M2139.451205 340.406894 C2135.488320 322.983260 2118.911986 309.301776 2101.058312 308.571148 C2083.204638 307.840519 2065.627708 320.025914 2059.912013 336.955719 C2054.196318 353.885525 2060.718192 374.145088 2075.151809 384.678758 C2089.585426 395.212427 2110.765833 395.285831 2125.356943 384.971424 C2128.302250 382.889398 2131.005664 380.416159 2133.062612 377.453280 C2135.059281 374.577229 2136.408027 371.300514 2137.495760 367.972572 C2140.392772 359.109108 2141.519271 349.499573 2139.451205 340.406896 z"/><path class="selected"  fill="#000000" opacity="1.000000" stroke="none" 
 	d="
M2311.022407 279.441840 C2314.353350 277.706869 2318.281520 277.689079 2322.037058 277.724295 C2334.411013 277.840326 2346.783592 278.103104 2359.151316 278.512555 C2340.549447 299.796356 2321.947578 321.080157 2303.345710 342.363958 C2302.312030 343.546669 2301.225068 344.854143 2301.134902 346.422317 C2301.035438 348.152240 2302.171502 349.680960 2303.249642 351.037479 C2322.615751 375.403928 2341.981859 399.770379 2361.347966 424.136829 C2350.097738 424.257086 2338.847510 424.377343 2327.597282 424.497601 C2320.798814 424.570272 2313.002337 424.196421 2308.752061 418.889859 C2298.513560 406.106839 2288.275056 393.323823 2278.036552 380.540807 C2277.183838 379.476173 2276.201439 378.334044 2274.851915 378.135672 C2273.457776 377.930743 2272.150360 378.805802 2271.063631 379.702820 C2260.484429 388.435209 2256.035897 403.897005 2260.356884 416.916346 C2262.183740 422.420752 2253.967345 425.311070 2248.168528 425.213045 C2240.548489 425.084231 2232.928449 424.955419 2225.308410 424.826606 C2223.744347 424.800166 2222.025872 424.714656 2220.880056 423.649715 C2219.593219 422.453704 2219.504307 420.481179 2219.504391 418.724367 C2219.507520 354.690914 2219.510647 290.657462 2219.513773 226.624009 C2219.513834 225.378465 2219.560640 224.006121 2220.402145 223.087834 C2221.339388 222.065074 2222.898302 221.989289 2224.285547 221.985312 C2233.699060 221.958325 2243.112573 221.931337 2252.526087 221.904350 C2254.580074 221.898461 2256.894801 222.001437 2258.275012 223.522593 C2259.491605 224.863423 2259.556948 226.856403 2259.555593 228.666906 C2259.527578 266.082932 2259.499564 303.498958 2259.471550 340.914984 C2274.367529 322.567231 2289.263508 304.219478 2304.159488 285.871725 C2306.150084 283.419857 2308.221404 280.900784 2311.022407 279.441840 z"/><path class="selected"  fill="#000000" opacity="1.000000" stroke="none" 
 	d="
M878.412924 386.592093 C865.788332 409.016393 842.091666 424.841159 816.541506 427.910173 C790.991345 430.979188 764.221169 421.216358 746.645225 402.419663 C739.413960 394.686144 733.683386 385.513486 730.188587 375.519243 C721.792700 351.509128 727.355601 323.359303 743.573649 303.764623 C759.791697 284.169942 785.902403 273.488218 811.281395 275.186251 C836.660388 276.884284 860.789268 290.618501 875.965963 311.030373 C877.230012 312.730452 878.487460 314.923698 877.593319 316.844272 C876.938952 318.249808 875.364051 318.934386 873.920503 319.499976 C866.554772 322.385899 859.189041 325.271824 851.823311 328.157750 C848.142296 329.599987 843.173473 330.701828 840.887413 327.476330 C827.383754 308.423410 796.649376 304.904565 779.188791 320.412317 C761.728205 335.920069 761.594158 366.854941 778.919695 382.513428 C796.245232 398.171915 827.008950 394.919552 840.677220 375.984377 C843.354911 372.274870 849.078837 373.386222 853.350142 375.025257 C861.946681 378.324032 870.325197 382.190837 878.412924 386.592093 z"/><path class="selected"  fill="#000000" opacity="1.000000" stroke="none" 
 	d="
M313.090609 477.623800 C313.836122 484.688842 305.690326 489.026292 298.894356 491.096415 C240.029391 509.027258 176.060301 509.846730 116.755327 493.429691 C107.767144 490.941546 96.953160 485.334636 97.931591 476.059887 C101.329941 443.846220 104.094744 408.764171 86.554178 381.531880 C78.705768 369.346969 67.411216 359.871763 57.323879 349.464303 C1.493368 291.862015 -15.754786 200.109733 15.346788 126.165419 C46.448363 52.221106 124.092511 0.381291 204.310500 0.002096 C284.528488 -0.377099 362.659255 50.726360 394.458501 124.373338 C426.257748 198.020316 409.877781 289.931560 354.594333 348.059091 C344.148314 359.042512 332.376218 369.014179 324.296549 381.838914 C306.817863 409.582560 309.649620 445.014384 313.090609 477.623799 M171.687508 248.724998 C185.015692 228.253392 203.462035 211.142052 224.875405 199.386427 C244.760734 188.469674 266.869981 182.226097 287.249560 172.262433 C307.629138 162.298768 327.147906 147.355975 334.819716 126.007786 C349.395178 172.939511 339.942742 226.662844 310.223564 265.801079 C280.504386 304.939315 231.293147 328.472249 182.171173 327.036044 C180.279815 326.980745 178.190209 326.805195 176.880111 325.439934 C175.186091 323.674585 175.597766 320.826152 176.246895 318.467171 C185.768601 283.864578 219.324291 262.391196 250.263544 244.204251 C247.919463 241.698119 243.791834 242.803349 240.629968 244.136774 C217.100971 254.059475 194.028604 267.394322 179.075142 288.093782 C158.300101 316.851813 156.470678 355.927370 165.837218 390.145708 C175.203757 424.364046 194.455377 454.901338 213.464359 484.856059 C215.800827 488.537912 218.441438 492.467471 222.565646 493.883816 C225.710333 494.963772 229.153851 494.367869 232.423006 493.761247 C248.866084 490.710083 265.309163 487.658918 281.752241 484.607754 C290.873409 482.915237 302.404818 478.285413 301.625338 469.041348 C299.117441 439.299552 297.009537 407.545675 311.442110 381.419734 C321.013025 364.094397 336.831366 351.277623 350.207296 336.688099 C401.421643 280.827087 415.118135 193.641159 383.619492 124.712228 C352.120850 55.783297 277.328255 9.094212 201.565643 10.935038 C125.803032 12.775864 53.418791 62.967575 25.008526 133.225805 C-3.401738 203.484035 13.702917 289.803562 66.663399 344.011951 C76.316736 353.892750 87.093279 362.853453 94.904559 374.246477 C113.895918 401.946036 112.117245 438.379058 109.597132 471.869150 C109.067556 478.906753 117.744429 482.483001 124.659982 483.891345 C140.064106 487.028368 155.468228 490.165394 170.872351 493.302420 C154.877758 422.350975 138.986959 347.476480 160.445339 277.982073 C167.736490 254.369190 155.838794 226.347097 133.786208 215.193057 C146.168731 231.320983 159.272338 250.438720 154.765741 270.266162 C127.506315 262.280391 104.728550 240.375132 95.684706 213.448235 C86.640862 186.521339 91.577751 155.307654 108.490023 132.486087 C112.751994 163.695218 147.848799 180.202156 163.517245 207.527492 C170.605253 219.888778 173.521638 234.594279 171.687509 248.724998 z"/><path class="selected"  fill="#000000" opacity="1.000000" stroke="none" 
 	d="
M104.669960 512.546414 C166.927049 533.820222 236.078790 534.347706 298.653165 514.026103 C303.743432 512.372992 311.750812 512.487749 311.777834 517.839651 C311.795565 521.350058 307.825692 523.315691 304.482974 524.387846 C241.233645 544.674654 171.533110 545.979128 108.515663 524.983109 C105.233600 523.889598 101.648016 522.459162 100.161772 519.335257 C98.675528 516.211352 101.396368 511.427799 104.669960 512.546414 z"/><path class="selected"  fill="#000000" opacity="1.000000" stroke="none" 
 	d="
M311.451179 587.212033 C311.594398 590.637016 307.728602 592.643398 304.476742 593.728032 C240.417006 615.094678 169.452104 615.166873 105.349027 593.930613 C102.512207 592.990822 99.207573 591.438713 98.900168 588.466129 C98.355410 583.198411 106.463973 582.701056 111.508853 584.311891 C172.024737 603.634678 238.608867 603.434103 299.007235 583.747081 C303.786730 582.189190 311.241154 582.189435 311.451179 587.212033 z"/><path class="selected"  fill="#000000" opacity="1.000000" stroke="none" 
 	d="
M109.048411 560.465426 C105.604178 559.389417 101.833568 557.969087 100.228923 554.737114 C98.624278 551.505141 101.408847 546.468971 104.831281 547.612422 C169.556102 569.237331 241.375385 568.993679 305.951987 546.930107 C309.458285 545.732127 312.349166 550.889491 310.717144 554.216017 C309.085121 557.542544 305.218214 559.016897 301.685307 560.133968 C239.503918 579.795096 171.297089 579.912456 109.048411 560.465425 z"/><path class="selected"  fill="#000000" opacity="1.000000" stroke="none" 
 	d="
M1937.897827 275.394337 C1939.659936 275.417303 1941.657356 275.644123 1942.715972 277.052983 C1943.498189 278.093998 1943.536782 279.496486 1943.543289 280.798612 C1943.583378 288.821089 1943.623468 296.843566 1943.663558 304.866043 C1943.681135 308.383491 1942.689550 313.054835 1939.177389 313.248428 C1922.783921 314.152047 1905.256054 320.885387 1897.715405 335.469657 C1893.088192 344.419074 1892.889676 354.919631 1892.791972 364.994036 C1892.612303 383.520165 1892.432633 402.046293 1892.252963 420.572421 C1892.226894 423.260542 1888.629919 424.089594 1885.941675 424.085591 C1877.019914 424.072298 1868.098155 424.059009 1859.176395 424.045719 C1857.061605 424.042568 1854.590440 423.858373 1853.422603 422.095278 C1852.728319 421.047109 1852.705021 419.707794 1852.705185 418.450540 C1852.711070 373.404935 1852.716954 328.359331 1852.722838 283.313727 C1852.723019 281.925221 1852.748576 280.447360 1853.510648 279.286674 C1854.800111 277.322735 1857.543278 277.103861 1859.892639 277.087436 C1868.084097 277.030167 1876.275554 276.972898 1884.467011 276.915629 C1887.010735 276.897845 1889.896489 277.026277 1891.563338 278.947855 C1895.579192 283.577415 1888.706380 293.430997 1894.304930 295.924218 C1904.726151 282.970953 1921.274290 275.177680 1937.897827 275.394338 z"/><path class="selected"  fill="#000000" opacity="1.000000" stroke="none" 
 	d="
M1633.838554 308.895124 C1629.839971 312.042929 1624.103982 310.286002 1619.075228 309.505635 C1614.046474 308.725268 1607.225219 310.679124 1607.255218 315.767979 C1607.360196 333.575704 1607.465175 351.383429 1607.570154 369.191154 C1607.627485 378.916446 1609.561477 391.221418 1618.970571 393.681814 C1624.423442 395.107693 1630.797333 392.413686 1635.568827 395.413646 C1635.753706 404.218501 1635.938583 413.023354 1636.123460 421.828208 C1636.200446 425.494664 1631.463823 426.946775 1627.811139 427.273472 C1617.836103 428.165625 1607.708991 429.051364 1597.868244 427.192079 C1588.027497 425.332794 1578.335718 420.338607 1573.047856 411.833563 C1567.613042 403.092161 1567.557612 392.164635 1567.670492 381.872086 C1567.898390 361.092309 1568.126286 340.312534 1568.354182 319.532758 C1568.383848 316.827840 1568.369791 313.957276 1566.946534 311.656884 C1565.523276 309.356492 1562.137044 308.058692 1560.030817 309.756123 C1557.230881 312.012623 1552.724780 310.232945 1550.889958 307.140234 C1549.055136 304.047523 1549.129258 300.227528 1549.257845 296.633797 C1549.455301 291.115344 1549.652756 285.596891 1549.850211 280.078438 C1549.907893 278.466353 1550.074146 276.632952 1551.356220 275.653957 C1553.260446 274.199886 1555.909907 275.683452 1558.279169 276.039822 C1564.079339 276.912248 1568.510327 270.373566 1568.755455 264.513275 C1569.000583 258.652984 1566.731238 252.933614 1566.730032 247.068198 C1566.728825 241.202783 1570.461347 234.424439 1576.325176 234.560885 C1584.235293 234.744946 1592.145410 234.929006 1600.055528 235.113067 C1602.572538 235.171635 1605.488550 235.437065 1606.892782 237.526779 C1607.793147 238.866662 1607.791013 240.596336 1607.756771 242.210266 C1607.567183 251.146105 1607.377595 260.081943 1607.188007 269.017782 C1607.093266 273.483224 1612.463585 276.117466 1616.924388 275.893007 C1621.385191 275.668547 1625.727624 273.780088 1630.174518 274.197556 C1634.621412 274.615024 1639.213718 279.102170 1637.259500 283.118410 C1633.320454 291.213798 1640.912450 303.326339 1633.838553 308.895124 z"/><path class="selected"  fill="#000000" opacity="1.000000" stroke="none" 
 	d="
M179.958777 641.527440 C181.899569 638.394918 186.571722 639.264801 190.141760 640.178146 C199.088107 642.466944 208.605665 642.485567 217.560900 640.231798 C220.056701 639.603678 222.591434 638.795014 225.148784 639.084007 C227.706135 639.373000 230.323483 641.145925 230.590662 643.705646 C230.919978 646.860658 227.764058 649.211488 224.846849 650.457458 C213.393874 655.349127 200.245524 654.104300 188.146135 651.154080 C185.742985 650.568116 183.256385 649.866341 181.424988 648.203674 C179.593590 646.541007 178.656027 643.630137 179.958775 641.527443 z"/><path class="selected"  fill="#000000" opacity="1.000000" stroke="none" 
 	d="
M1958.467212 413.879418 C1956.485348 409.343838 1956.165518 404.103372 1957.581106 399.360443 C1960.388473 389.954343 1970.447281 383.297060 1980.202490 384.388788 C1989.957698 385.480515 1998.296030 394.196663 1998.954676 403.990648 C1999.616253 413.828204 1992.446977 423.618887 1982.868754 425.958299 C1973.290531 428.297711 1962.415096 422.914319 1958.467212 413.879419 z"/><path class="selected"  fill="#000000" opacity="1.000000" stroke="none" 
 	d="
M1004.371529 423.925475 C993.820710 427.111478 982.647916 428.188515 971.672736 427.180633 C942.714655 424.521332 915.094158 405.824343 904.363429 378.796694 C893.864171 352.352065 900.767276 320.190997 920.379548 299.577615 C939.991820 278.964233 971.036661 270.423045 998.727433 276.963217 C1033.063070 285.072811 1061.073933 317.757897 1060.280092 353.029289 C1059.556303 385.188139 1035.165197 414.626792 1004.371529 423.925475 M990.339255 311.273327 C983.757150 309.482270 976.732148 309.343931 970.084633 310.874466 C951.953072 315.049108 937.869967 332.696048 937.821579 351.301930 C937.773190 369.907811 951.764316 387.627764 969.873918 391.896659 C983.852639 395.191800 999.419863 390.607257 1009.381407 380.261715 C1019.342952 369.916173 1023.335690 354.186757 1019.514431 340.342603 C1015.693172 326.498450 1004.197213 315.044218 990.339256 311.273327 z"/></svg>